<?xml version="1.0" standalone="no"?>
<!DOCTYPE svg PUBLIC "-//W3C//DTD SVG 1.1//EN" "http://www.w3.org/Graphics/SVG/1.1/DTD/svg11.dtd" >
<svg xmlns="http://www.w3.org/2000/svg" xmlns:xlink="http://www.w3.org/1999/xlink" version="1.1">
<metadata>
Created by FontForge 20170731 at Sat Oct 29 01:28:56 2016
 By Aleksey,,,
Copyright (C) 2001, 2010 Hoefler &#38; Co. http://www.typography.com
</metadata>
<defs>
<font id="GothamSSm-BookItalic" horiz-adv-x="530" >
  <font-face 
    font-family="Gotham SSm Book"
    font-weight="325"
    font-style="italic"
    font-stretch="normal"
    units-per-em="1000"
    panose-1="0 0 0 0 0 0 0 0 0 0"
    ascent="800"
    descent="-200"
    x-height="541"
    cap-height="728"
    bbox="-127 -262 1227 999"
    underline-thickness="50"
    underline-position="-200"
    slope="-15"
    unicode-range="U+0020-2122"
  />
<missing-glyph horiz-adv-x="500" 
d="M0 800h500v-1000h-500v1000zM222 300l-172 376v-752zM429 -150l-179 390l-179 -390h358zM429 750h-358l179 -390zM450 676l-172 -376l172 -376v752z" />
    <glyph glyph-name=".notdef" horiz-adv-x="500" 
d="M0 800h500v-1000h-500v1000zM222 300l-172 376v-752zM429 -150l-179 390l-179 -390h358zM429 750h-358l179 -390zM450 676l-172 -376l172 -376v752z" />
    <glyph glyph-name=".null" horiz-adv-x="0" 
 />
    <glyph glyph-name="nonmarkingreturn" horiz-adv-x="322" 
 />
    <glyph glyph-name="space" unicode=" " horiz-adv-x="322" 
 />
    <glyph glyph-name="exclam" unicode="!" horiz-adv-x="302" 
d="M204 676l14 52h111l-15 -52l-153 -463h-52zM56 120h109l-33 -120h-108z" />
    <glyph glyph-name="quotedbl" unicode="&#x22;" horiz-adv-x="485" 
d="M202 728h110l-1 -5l-151 -286h-51zM415 728h110l-1 -5l-151 -286h-51z" />
    <glyph glyph-name="numbersign" unicode="#" horiz-adv-x="721" 
d="M141 179h-110l22 83h116l73 208h-121l21 83h129l61 175h85l-61 -175h189l62 175h84l-61 -175h110l-22 -83h-116l-73 -208h122l-22 -83h-129l-62 -179h-85l62 179h-190l-62 -179h-85zM444 262l73 208h-190l-72 -208h189z" />
    <glyph glyph-name="dollar" unicode="$" horiz-adv-x="660" 
d="M519 788l-20 -71q54 -12 96 -36.5t75 -56.5l-66 -65q-28 27 -61 46t-72 29l-65 -232q86 -32 130.5 -74.5t44.5 -112.5q0 -47 -20.5 -86.5t-57 -68t-87.5 -44.5t-111 -16h-12l-29 -102h-73l31 109q-69 12 -125.5 43.5t-94.5 79.5l71 59q34 -39 77.5 -64.5t99.5 -35.5
l68 245q-45 16 -78.5 34t-56.5 39.5t-34.5 49t-11.5 63.5q0 45 20 83t55 65.5t82.5 43.5t102.5 16h15q7 0 15 -1l18 61h74zM236 530q0 -36 24 -59t84 -46l62 219h-17q-36 0 -64.5 -9t-48 -24.5t-30 -36.5t-10.5 -44zM483 205q0 33 -23 58t-81 48l-64 -227h1q77 0 122 33.5
t45 87.5z" />
    <glyph glyph-name="percent" unicode="%" horiz-adv-x="888" 
d="M248 360q-34 0 -61.5 11.5t-47 32t-30.5 48.5t-11 61q0 48 18.5 91.5t50.5 75.5q26 26 59 41t72 15q33 0 60.5 -11.5t47 -32t30.5 -48.5t11 -61q0 -48 -18 -91.5t-50 -75.5q-26 -26 -59.5 -41t-71.5 -15zM253 423q21 0 39.5 9t33.5 24q23 23 36.5 56t13.5 66
q0 44 -22 69.5t-61 25.5q-21 0 -40 -9t-34 -24q-23 -23 -36.5 -56t-13.5 -66q0 -44 22 -69.5t62 -25.5zM423 364l353 364h92l-353 -364l-353 -364h-91zM640 -8q-33 0 -60.5 11.5t-47 32t-30.5 48.5t-11 61q0 48 18 91.5t50 75.5q26 26 59.5 41t72.5 15q33 0 60.5 -11.5
t47 -32t30.5 -48.5t11 -61q0 -48 -18.5 -91.5t-50.5 -75.5q-26 -26 -59 -41t-72 -15zM645 55q21 0 40 9t34 24q23 23 36.5 56t13.5 66q0 44 -22 69.5t-61 25.5q-22 0 -40.5 -9t-33.5 -24q-23 -23 -36.5 -56t-13.5 -66q0 -44 22 -69.5t61 -25.5z" />
    <glyph glyph-name="ampersand" unicode="&#x26;" horiz-adv-x="730" 
d="M687 320q-31 -50 -62 -92.5t-63 -77.5l86 -118l-72 -47l-76 106q-57 -50 -116.5 -75.5t-132.5 -25.5q-46 0 -85.5 12.5t-69 36.5t-46 59t-16.5 79q0 79 57 142t178 97q-21 33 -33 67t-12 67q0 39 16 74t43.5 60.5t65.5 40.5t83 15q41 0 75 -11.5t58 -32.5t37 -50.5
t13 -65.5q0 -28 -10.5 -56t-36 -53.5t-68 -49t-106.5 -42.5l121 -169q58 64 109 151zM262 71q51 0 98 20.5t95 60.5l-145 205q-96 -28 -139.5 -74t-43.5 -99q0 -51 36 -82t99 -31zM312 549q0 -26 9 -52t32 -60q51 15 84 31.5t53 33.5t28 35.5t8 37.5q0 37 -26 62.5t-72 25.5
q-24 0 -45.5 -9t-37 -24.5t-24.5 -36t-9 -44.5z" />
    <glyph glyph-name="quotesingle" unicode="'" horiz-adv-x="272" 
d="M202 728h110l-1 -5l-151 -286h-51z" />
    <glyph glyph-name="parenleft" unicode="(" horiz-adv-x="463" 
d="M276 -147q-40 34 -74 73.5t-58.5 86t-38.5 99t-14 111.5q0 98 38 189t116 169q98 99 257 164l34 -70q-68 -29 -121 -65t-93 -76q-70 -70 -102.5 -149t-32.5 -159q0 -51 11.5 -94.5t31 -82t46.5 -72.5t57 -65z" />
    <glyph glyph-name="parenright" unicode=")" horiz-adv-x="463" 
d="M203 748q40 -34 73.5 -73.5t58.5 -86t39 -99t14 -111.5q0 -98 -38 -189.5t-116 -169.5q-49 -49 -113 -90.5t-144 -73.5l-34 71q68 29 121 65t93 76q70 70 102 149t32 159q0 51 -11.5 94.5t-31 82t-46 72.5t-56.5 65z" />
    <glyph glyph-name="asterisk" unicode="*" horiz-adv-x="457" 
d="M231 421l45 122l-122 -45l-17 59l131 21l-103 84l44 43l83 -101l22 128l59 -15l-46 -122l123 45l16 -58l-130 -22l102 -84l-44 -43l-83 101l-22 -128z" />
    <glyph glyph-name="plus" unicode="+" horiz-adv-x="663" 
d="M301 322h-211l23 88h211l56 209h91l-57 -209h211l-23 -88h-211l-56 -209h-91z" />
    <glyph glyph-name="comma" unicode="," horiz-adv-x="287" 
d="M-45 -92q49 10 73.5 33.5t30.5 58.5h-42l32 120h108l-27 -103q-10 -37 -24.5 -63t-34.5 -44t-46.5 -28.5t-60.5 -15.5z" />
    <glyph glyph-name="hyphen" unicode="-" horiz-adv-x="437" 
d="M95 362h295l-25 -96h-296z" />
    <glyph glyph-name="period" unicode="." horiz-adv-x="287" 
d="M49 120h108l-32 -120h-108z" />
    <glyph glyph-name="slash" unicode="/" horiz-adv-x="542" 
d="M603 830h94l-730 -963h-94z" />
    <glyph glyph-name="zero" unicode="0" horiz-adv-x="756" 
d="M463 740q61 0 109.5 -21t82 -58.5t51 -89.5t17.5 -115q0 -102 -38.5 -199.5t-107.5 -166.5q-47 -48 -106 -75t-129 -27q-62 0 -110 21t-81.5 58.5t-51 89.5t-17.5 115q0 51 10 101.5t28.5 98t45.5 90t61 76.5q48 48 107 75t129 27zM349 75q43 0 81.5 19t71.5 51
q28 28 50 64t38 76.5t24.5 84t8.5 86.5t-11 79.5t-32 62.5t-52.5 40.5t-71.5 14.5q-43 0 -81.5 -19t-71.5 -51q-28 -28 -50.5 -64t-38.5 -76.5t-24.5 -84t-8.5 -86.5q0 -44 11 -80t32.5 -62t52.5 -40.5t72 -14.5z" />
    <glyph glyph-name="one" unicode="1" horiz-adv-x="399" 
d="M271 628l-145 -41l-2 84l202 62h69l-197 -733h-95z" />
    <glyph glyph-name="two" unicode="2" horiz-adv-x="632" 
d="M0 77l404 304q58 45 88.5 83t30.5 82q0 47 -34.5 76.5t-95.5 29.5q-59 0 -106.5 -28.5t-88.5 -70.5l-62 61q50 54 114 89t147 35q50 0 91.5 -13.5t71 -37.5t46 -58t16.5 -75q0 -66 -39 -118.5t-120 -112.5l-311 -236h375l-23 -87h-523z" />
    <glyph glyph-name="three" unicode="3" horiz-adv-x="639" 
d="M262 -12q-97 0 -161 38.5t-97 101.5l74 50q29 -49 74 -76.5t114 -27.5q40 0 75 11.5t60.5 31.5t40 48t14.5 60q0 59 -49 88t-131 29h-36l-9 57l280 244h-344l24 85h477l-19 -71l-286 -245q40 -5 74.5 -17.5t60.5 -34.5t41 -53.5t15 -73.5q0 -47 -17 -87t-49 -72
q-41 -40 -99.5 -63t-126.5 -23z" />
    <glyph glyph-name="four" unicode="4" horiz-adv-x="687" 
d="M412 170h-372l-11 71l534 492h92l-130 -483h111l-22 -80h-110l-46 -170h-92zM433 250l93 346l-371 -346h278z" />
    <glyph glyph-name="five" unicode="5" horiz-adv-x="639" 
d="M266 -12q-44 0 -82.5 10t-71 28t-58 41.5t-43.5 50.5l72 55q35 -47 81.5 -73t109.5 -26q45 0 82 13.5t63 37t40.5 53.5t14.5 63q0 61 -43.5 96.5t-115.5 35.5q-32 0 -68.5 -9.5t-71.5 -27.5l-53 42l115 350h412l-24 -87h-326l-70 -210q21 9 54.5 16.5t60.5 7.5
q51 0 93.5 -14.5t72.5 -41t46.5 -64.5t16.5 -85q0 -49 -19 -93.5t-54 -79.5q-41 -41 -100 -65t-134 -24z" />
    <glyph glyph-name="six" unicode="6" horiz-adv-x="677" 
d="M333 -12q-55 0 -101 17t-78 49q-35 35 -54 84t-19 118q0 115 39.5 213.5t105.5 164.5q51 51 112 78.5t133 27.5t125.5 -25t91.5 -66l-60 -67q-31 32 -71 52t-93 20q-49 0 -90.5 -18.5t-79.5 -55.5q-19 -20 -36.5 -44.5t-31.5 -53t-24 -59t-14 -60.5q15 19 35.5 37
t46.5 31.5t56.5 21.5t64.5 8q52 0 94 -16t72 -44t46.5 -66t16.5 -83q0 -51 -20.5 -97t-56.5 -82q-39 -40 -92.5 -62.5t-117.5 -22.5zM335 70q42 0 77 15t59 40q50 50 50 119q0 26 -9.5 50.5t-28.5 43t-47.5 30t-65.5 11.5q-46 0 -82 -15t-61 -40q-24 -24 -36 -52.5
t-12 -58.5q0 -32 10.5 -56.5t28.5 -43.5q44 -43 117 -43z" />
    <glyph glyph-name="seven" unicode="7" horiz-adv-x="624" 
d="M534 641h-386l24 87h499l-20 -72l-480 -656h-112z" />
    <glyph glyph-name="eight" unicode="8" horiz-adv-x="685" 
d="M314 -10q-59 0 -108.5 15t-85.5 41t-56.5 62t-20.5 78q0 43 16 77t44.5 59.5t66 42t81.5 24.5q-45 19 -73.5 58t-28.5 91q0 40 19 76t53.5 63.5t83.5 44t109 16.5q54 0 99.5 -14t78.5 -39.5t51.5 -60t18.5 -76.5q0 -36 -13.5 -67t-37 -54.5t-56 -40t-70.5 -24.5
q24 -9 46.5 -24t39 -35t26.5 -45.5t10 -55.5q0 -44 -21.5 -83t-60 -67.5t-92.5 -45t-119 -16.5zM319 71q43 0 78 10t60 27.5t39 42.5t14 55q0 25 -12 48t-35.5 40.5t-56.5 27.5t-74 10q-44 0 -79.5 -11t-60.5 -30t-39 -43.5t-14 -52.5q0 -27 13 -50t36.5 -39.5t56.5 -25.5
t74 -9zM396 410q41 0 73 11t54 29t33.5 41t11.5 48t-11 46.5t-31.5 37.5t-49.5 25t-65 9q-38 0 -69 -10t-53 -27t-34.5 -40.5t-12.5 -50.5q0 -25 11 -47t31 -38t48.5 -25t63.5 -9z" />
    <glyph glyph-name="nine" unicode="9" horiz-adv-x="677" 
d="M258 -12q-69 0 -126.5 26.5t-100.5 71.5l61 67q36 -36 76.5 -57.5t94.5 -21.5q94 0 169 75q40 39 68.5 95t36.5 116q-14 -18 -34 -36t-45.5 -32.5t-57 -23.5t-67.5 -9q-51 0 -93 16t-72 44.5t-46.5 67.5t-16.5 85q0 53 21 100t57 83q40 40 93 62.5t117 22.5q54 0 101 -17
t78 -49q35 -35 54 -84t19 -124q0 -56 -10.5 -109t-29.5 -100.5t-46 -89t-60 -74.5q-51 -51 -111.5 -78t-129.5 -27zM358 341q43 0 78 15t61 40q23 23 36.5 54.5t13.5 64.5q0 60 -39 99q-44 44 -117 44q-42 0 -76 -14.5t-59 -39.5t-38.5 -57t-13.5 -67q0 -28 9.5 -53
t28.5 -44t48 -30.5t68 -11.5z" />
    <glyph glyph-name="colon" unicode=":" horiz-adv-x="293" 
d="M52 120h109l-33 -120h-108zM165 541h109l-33 -119h-108z" />
    <glyph glyph-name="semicolon" unicode=";" horiz-adv-x="293" 
d="M-42 -92q49 10 73.5 33.5t30.5 58.5h-42l32 120h109l-28 -103q-10 -37 -24.5 -63t-34.5 -44t-46.5 -28.5t-60.5 -15.5zM165 541h109l-33 -119h-108z" />
    <glyph glyph-name="less" unicode="&#x3c;" horiz-adv-x="663" 
d="M86 325l22 82l556 239l-27 -99l-442 -186l342 -188l-24 -87z" />
    <glyph glyph-name="equal" unicode="=" horiz-adv-x="663" 
d="M96 286h480l-24 -89h-480zM162 535h481l-24 -89h-480z" />
    <glyph glyph-name="greater" unicode="&#x3e;" horiz-adv-x="663" 
d="M75 185l442 186l-342 188l24 87l427 -239l-22 -82l-555 -239z" />
    <glyph glyph-name="question" unicode="?" horiz-adv-x="570" 
d="M227 382l7 5q54 4 98 16t75.5 32t48.5 47.5t17 61.5q0 51 -36 78.5t-94 27.5q-53 0 -99.5 -23.5t-81.5 -56.5l-54 64q46 45 108.5 74t138.5 29q51 0 91.5 -14.5t68.5 -39.5t43 -58.5t15 -72.5q0 -49 -20.5 -88t-56.5 -68t-86 -48t-109 -28l-39 -107h-62zM153 120h108
l-32 -120h-108z" />
    <glyph glyph-name="at" unicode="@" horiz-adv-x="1029" 
d="M504 -165q-98 0 -178 29.5t-137 83t-88.5 128t-31.5 165.5q0 100 40 191t109 160t161.5 109.5t198.5 40.5q97 0 173.5 -29t130 -78.5t81.5 -115.5t28 -141q0 -77 -21 -134.5t-54 -95.5t-73.5 -56.5t-79.5 -18.5q-54 0 -88 25t-45 69q-38 -45 -82.5 -70.5t-100.5 -25.5
q-34 0 -64 11.5t-52.5 34t-35.5 55t-13 73.5q0 59 22 110.5t58.5 89t82.5 59t94 21.5q60 0 96.5 -28.5t53.5 -68.5l27 87l75 -21l-78 -249q-5 -18 -7.5 -30.5t-2.5 -24.5q0 -34 20 -54.5t56 -20.5q27 0 57 16t55.5 49t42.5 82.5t17 115.5q0 67 -25.5 126.5t-73.5 104
t-117.5 70.5t-156.5 26q-98 0 -183.5 -37.5t-149 -101.5t-100.5 -148t-37 -177q0 -83 28.5 -151t80.5 -116.5t125 -75.5t162 -27q59 0 110 11.5t105 35.5l15 -33q-57 -26 -112 -38t-118 -12zM474 142q34 0 67.5 16t60 43t42.5 62.5t16 74.5q0 51 -31 83t-85 32
q-35 0 -66.5 -16t-55.5 -43t-38 -63t-14 -77q0 -54 29 -83t75 -29z" />
    <glyph glyph-name="A" unicode="A" horiz-adv-x="802" 
d="M485 733h93l131 -733h-99l-31 188h-381l-133 -188h-105zM565 274l-60 348l-247 -348h307z" />
    <glyph glyph-name="A" unicode="&#x1fa;" horiz-adv-x="802" 
d="M485 733h93l131 -733h-99l-31 188h-381l-133 -188h-105zM565 274l-60 348l-247 -348h307z" />
    <glyph glyph-name="A" unicode="&#x104;" horiz-adv-x="802" 
d="M485 733h93l131 -733h-99l-31 188h-381l-133 -188h-105zM565 274l-60 348l-247 -348h307z" />
    <glyph glyph-name="A" unicode="&#x102;" horiz-adv-x="802" 
d="M485 733h93l131 -733h-99l-31 188h-381l-133 -188h-105zM565 274l-60 348l-247 -348h307z" />
    <glyph glyph-name="A" unicode="&#x100;" horiz-adv-x="802" 
d="M485 733h93l131 -733h-99l-31 188h-381l-133 -188h-105zM565 274l-60 348l-247 -348h307z" />
    <glyph glyph-name="B" unicode="B" horiz-adv-x="756" 
d="M228 728h275q112 0 170.5 -47t58.5 -124q0 -39 -13.5 -70.5t-37 -55.5t-56 -40t-70.5 -24q26 -9 48.5 -22t39.5 -31.5t26.5 -42.5t9.5 -54q0 -48 -21 -87.5t-60.5 -68.5t-96.5 -45t-129 -16h-340zM384 86q91 0 144.5 36t53.5 99q0 52 -43 78.5t-112 26.5h-213l-64 -240
h234zM436 409q92 0 145.5 36t53.5 98q0 48 -36.5 73.5t-104.5 25.5h-195l-62 -233h199z" />
    <glyph glyph-name="C" unicode="C" horiz-adv-x="773" 
d="M406 -13q-66 0 -123.5 21t-100.5 60.5t-67.5 95.5t-24.5 127q0 91 36.5 174.5t99.5 146.5q59 59 136.5 93.5t165.5 34.5q103 0 171 -43.5t106 -112.5l-81 -52q-34 55 -81 87.5t-124 32.5q-63 0 -118.5 -25.5t-99.5 -68.5q-51 -51 -80.5 -119.5t-29.5 -143.5
q0 -50 16 -90.5t45.5 -69t69.5 -44t88 -15.5q70 0 119.5 25.5t96.5 68.5l63 -63q-26 -26 -55 -47.5t-63.5 -38t-75.5 -25.5t-89 -9z" />
    <glyph glyph-name="C" unicode="&#x10c;" horiz-adv-x="773" 
d="M406 -13q-66 0 -123.5 21t-100.5 60.5t-67.5 95.5t-24.5 127q0 91 36.5 174.5t99.5 146.5q59 59 136.5 93.5t165.5 34.5q103 0 171 -43.5t106 -112.5l-81 -52q-34 55 -81 87.5t-124 32.5q-63 0 -118.5 -25.5t-99.5 -68.5q-51 -51 -80.5 -119.5t-29.5 -143.5
q0 -50 16 -90.5t45.5 -69t69.5 -44t88 -15.5q70 0 119.5 25.5t96.5 68.5l63 -63q-26 -26 -55 -47.5t-63.5 -38t-75.5 -25.5t-89 -9z" />
    <glyph glyph-name="C" unicode="&#x10a;" horiz-adv-x="773" 
d="M406 -13q-66 0 -123.5 21t-100.5 60.5t-67.5 95.5t-24.5 127q0 91 36.5 174.5t99.5 146.5q59 59 136.5 93.5t165.5 34.5q103 0 171 -43.5t106 -112.5l-81 -52q-34 55 -81 87.5t-124 32.5q-63 0 -118.5 -25.5t-99.5 -68.5q-51 -51 -80.5 -119.5t-29.5 -143.5
q0 -50 16 -90.5t45.5 -69t69.5 -44t88 -15.5q70 0 119.5 25.5t96.5 68.5l63 -63q-26 -26 -55 -47.5t-63.5 -38t-75.5 -25.5t-89 -9z" />
    <glyph glyph-name="C" unicode="&#x106;" horiz-adv-x="773" 
d="M406 -13q-66 0 -123.5 21t-100.5 60.5t-67.5 95.5t-24.5 127q0 91 36.5 174.5t99.5 146.5q59 59 136.5 93.5t165.5 34.5q103 0 171 -43.5t106 -112.5l-81 -52q-34 55 -81 87.5t-124 32.5q-63 0 -118.5 -25.5t-99.5 -68.5q-51 -51 -80.5 -119.5t-29.5 -143.5
q0 -50 16 -90.5t45.5 -69t69.5 -44t88 -15.5q70 0 119.5 25.5t96.5 68.5l63 -63q-26 -26 -55 -47.5t-63.5 -38t-75.5 -25.5t-89 -9z" />
    <glyph glyph-name="D" unicode="D" horiz-adv-x="814" 
d="M228 728h183q94 0 165.5 -25t118.5 -71q79 -79 79 -210q0 -84 -29.5 -155.5t-86.5 -128.5q-66 -66 -161 -102t-213 -36h-252zM616 570q-34 34 -87 52t-125 18h-103l-149 -552h143q89 0 163 28t128 82q42 42 65 98t23 121q0 49 -15 87t-43 66z" />
    <glyph glyph-name="D" unicode="&#x110;" horiz-adv-x="814" 
d="M228 728h183q94 0 165.5 -25t118.5 -71q79 -79 79 -210q0 -84 -29.5 -155.5t-86.5 -128.5q-66 -66 -161 -102t-213 -36h-252zM616 570q-34 34 -87 52t-125 18h-103l-149 -552h143q89 0 163 28t128 82q42 42 65 98t23 121q0 49 -15 87t-43 66z" />
    <glyph glyph-name="D" unicode="&#x10e;" horiz-adv-x="814" 
d="M228 728h183q94 0 165.5 -25t118.5 -71q79 -79 79 -210q0 -84 -29.5 -155.5t-86.5 -128.5q-66 -66 -161 -102t-213 -36h-252zM616 570q-34 34 -87 52t-125 18h-103l-149 -552h143q89 0 163 28t128 82q42 42 65 98t23 121q0 49 -15 87t-43 66z" />
    <glyph glyph-name="E" unicode="E" horiz-adv-x="692" 
d="M228 728h525l-23 -87h-429l-62 -231h382l-24 -86h-382l-63 -237h434l-23 -87h-531z" />
    <glyph glyph-name="F" unicode="F" horiz-adv-x="695" 
d="M228 728h529l-24 -88h-432l-65 -241h386l-24 -88h-386l-83 -311h-97z" />
    <glyph glyph-name="G" unicode="G" horiz-adv-x="825" 
d="M416 -13q-66 0 -125 20.5t-103.5 60t-70.5 97t-26 132.5q0 88 35 168.5t98 143.5q60 60 140 95.5t175 35.5q57 0 101 -11t77.5 -29t58 -42t42.5 -49l-73 -59q-16 21 -35.5 40t-45 32.5t-58 21.5t-75.5 8q-69 0 -128.5 -26.5t-104.5 -71.5q-50 -50 -78.5 -116t-28.5 -137
q0 -54 17 -96t48 -71t73.5 -44t92.5 -15q57 0 101 13.5t78 33.5l53 187h-210l23 85h304l-95 -333q-57 -35 -119.5 -54.5t-140.5 -19.5z" />
    <glyph glyph-name="G" unicode="&#x122;" horiz-adv-x="825" 
d="M416 -13q-66 0 -125 20.5t-103.5 60t-70.5 97t-26 132.5q0 88 35 168.5t98 143.5q60 60 140 95.5t175 35.5q57 0 101 -11t77.5 -29t58 -42t42.5 -49l-73 -59q-16 21 -35.5 40t-45 32.5t-58 21.5t-75.5 8q-69 0 -128.5 -26.5t-104.5 -71.5q-50 -50 -78.5 -116t-28.5 -137
q0 -54 17 -96t48 -71t73.5 -44t92.5 -15q57 0 101 13.5t78 33.5l53 187h-210l23 85h304l-95 -333q-57 -35 -119.5 -54.5t-140.5 -19.5z" />
    <glyph glyph-name="G" unicode="&#x120;" horiz-adv-x="825" 
d="M416 -13q-66 0 -125 20.5t-103.5 60t-70.5 97t-26 132.5q0 88 35 168.5t98 143.5q60 60 140 95.5t175 35.5q57 0 101 -11t77.5 -29t58 -42t42.5 -49l-73 -59q-16 21 -35.5 40t-45 32.5t-58 21.5t-75.5 8q-69 0 -128.5 -26.5t-104.5 -71.5q-50 -50 -78.5 -116t-28.5 -137
q0 -54 17 -96t48 -71t73.5 -44t92.5 -15q57 0 101 13.5t78 33.5l53 187h-210l23 85h304l-95 -333q-57 -35 -119.5 -54.5t-140.5 -19.5z" />
    <glyph glyph-name="G" unicode="&#x11e;" horiz-adv-x="825" 
d="M416 -13q-66 0 -125 20.5t-103.5 60t-70.5 97t-26 132.5q0 88 35 168.5t98 143.5q60 60 140 95.5t175 35.5q57 0 101 -11t77.5 -29t58 -42t42.5 -49l-73 -59q-16 21 -35.5 40t-45 32.5t-58 21.5t-75.5 8q-69 0 -128.5 -26.5t-104.5 -71.5q-50 -50 -78.5 -116t-28.5 -137
q0 -54 17 -96t48 -71t73.5 -44t92.5 -15q57 0 101 13.5t78 33.5l53 187h-210l23 85h304l-95 -333q-57 -35 -119.5 -54.5t-140.5 -19.5z" />
    <glyph glyph-name="H" unicode="H" horiz-adv-x="796" 
d="M228 728h96l-85 -317h393l85 317h97l-196 -728h-96l86 322h-393l-86 -322h-97z" />
    <glyph glyph-name="I" unicode="I" horiz-adv-x="321" 
d="M235 728h97l-196 -728h-96z" />
    <glyph glyph-name="J" unicode="J" horiz-adv-x="591" 
d="M206 -10q-84 0 -139 41.5t-81 107.5l74 49q24 -55 59 -82.5t89 -27.5q35 0 65 13t53 36q24 24 40.5 59.5t33.5 95.5l120 446h98l-125 -466q-19 -71 -41.5 -117.5t-59.5 -82.5q-36 -36 -84 -54t-102 -18z" />
    <glyph glyph-name="K" unicode="K" horiz-adv-x="758" 
d="M228 728h96l-110 -413l493 413h135l-385 -317l201 -411h-108l-170 354l-200 -165l-51 -189h-97z" />
    <glyph glyph-name="K" unicode="&#x136;" horiz-adv-x="758" 
d="M228 728h96l-110 -413l493 413h135l-385 -317l201 -411h-108l-170 354l-200 -165l-51 -189h-97z" />
    <glyph glyph-name="L" unicode="L" horiz-adv-x="645" 
d="M228 728h96l-171 -640h402l-24 -88h-499z" />
    <glyph glyph-name="L" unicode="&#x13f;" horiz-adv-x="645" 
d="M228 728h96l-171 -640h402l-24 -88h-499z" />
    <glyph glyph-name="L" unicode="&#x13d;" horiz-adv-x="645" 
d="M228 728h96l-171 -640h402l-24 -88h-499z" />
    <glyph glyph-name="L" unicode="&#x13b;" horiz-adv-x="645" 
d="M228 728h96l-171 -640h402l-24 -88h-499z" />
    <glyph glyph-name="L" unicode="&#x139;" horiz-adv-x="645" 
d="M228 728h96l-171 -640h402l-24 -88h-499z" />
    <glyph glyph-name="M" unicode="M" horiz-adv-x="911" 
d="M228 728h92l148 -381l353 381h108l-196 -728h-96l152 570l-354 -376h-4l-152 374l-153 -568h-94z" />
    <glyph glyph-name="N" unicode="N" horiz-adv-x="827" 
d="M228 728h89l281 -568l153 568h95l-196 -728h-78l-289 582l-156 -582h-95z" />
    <glyph glyph-name="O" unicode="O" horiz-adv-x="884" 
d="M519 740q72 0 131 -24.5t101.5 -67t66 -100t23.5 -124.5q0 -88 -35 -169.5t-97 -143.5q-57 -57 -132 -90.5t-163 -33.5q-71 0 -130 24.5t-101.5 67t-66 100.5t-23.5 125q0 88 35 169t96 143q57 57 132 90.5t163 33.5zM422 75q63 0 117 25t96 67q50 50 78 116.5t28 136.5
q0 49 -16 91.5t-45.5 74t-72 49t-95.5 17.5q-64 0 -118 -25t-96 -67q-50 -50 -77.5 -116.5t-27.5 -135.5q0 -50 16 -92.5t45.5 -74t72 -49t95.5 -17.5z" />
    <glyph glyph-name="O" unicode="&#x1fe;" horiz-adv-x="884" 
d="M519 740q72 0 131 -24.5t101.5 -67t66 -100t23.5 -124.5q0 -88 -35 -169.5t-97 -143.5q-57 -57 -132 -90.5t-163 -33.5q-71 0 -130 24.5t-101.5 67t-66 100.5t-23.5 125q0 88 35 169t96 143q57 57 132 90.5t163 33.5zM422 75q63 0 117 25t96 67q50 50 78 116.5t28 136.5
q0 49 -16 91.5t-45.5 74t-72 49t-95.5 17.5q-64 0 -118 -25t-96 -67q-50 -50 -77.5 -116.5t-27.5 -135.5q0 -50 16 -92.5t45.5 -74t72 -49t95.5 -17.5z" />
    <glyph glyph-name="O" unicode="&#x150;" horiz-adv-x="884" 
d="M519 740q72 0 131 -24.5t101.5 -67t66 -100t23.5 -124.5q0 -88 -35 -169.5t-97 -143.5q-57 -57 -132 -90.5t-163 -33.5q-71 0 -130 24.5t-101.5 67t-66 100.5t-23.5 125q0 88 35 169t96 143q57 57 132 90.5t163 33.5zM422 75q63 0 117 25t96 67q50 50 78 116.5t28 136.5
q0 49 -16 91.5t-45.5 74t-72 49t-95.5 17.5q-64 0 -118 -25t-96 -67q-50 -50 -77.5 -116.5t-27.5 -135.5q0 -50 16 -92.5t45.5 -74t72 -49t95.5 -17.5z" />
    <glyph glyph-name="O" unicode="&#x14e;" horiz-adv-x="884" 
d="M519 740q72 0 131 -24.5t101.5 -67t66 -100t23.5 -124.5q0 -88 -35 -169.5t-97 -143.5q-57 -57 -132 -90.5t-163 -33.5q-71 0 -130 24.5t-101.5 67t-66 100.5t-23.5 125q0 88 35 169t96 143q57 57 132 90.5t163 33.5zM422 75q63 0 117 25t96 67q50 50 78 116.5t28 136.5
q0 49 -16 91.5t-45.5 74t-72 49t-95.5 17.5q-64 0 -118 -25t-96 -67q-50 -50 -77.5 -116.5t-27.5 -135.5q0 -50 16 -92.5t45.5 -74t72 -49t95.5 -17.5z" />
    <glyph glyph-name="O" unicode="&#x14c;" horiz-adv-x="884" 
d="M519 740q72 0 131 -24.5t101.5 -67t66 -100t23.5 -124.5q0 -88 -35 -169.5t-97 -143.5q-57 -57 -132 -90.5t-163 -33.5q-71 0 -130 24.5t-101.5 67t-66 100.5t-23.5 125q0 88 35 169t96 143q57 57 132 90.5t163 33.5zM422 75q63 0 117 25t96 67q50 50 78 116.5t28 136.5
q0 49 -16 91.5t-45.5 74t-72 49t-95.5 17.5q-64 0 -118 -25t-96 -67q-50 -50 -77.5 -116.5t-27.5 -135.5q0 -50 16 -92.5t45.5 -74t72 -49t95.5 -17.5z" />
    <glyph glyph-name="P" unicode="P" horiz-adv-x="706" 
d="M228 728h228q71 0 124 -16.5t88 -52.5q53 -51 53 -138q0 -54 -18 -97t-51 -76q-48 -48 -121.5 -72t-167.5 -24h-166l-68 -252h-97zM590 597q-43 43 -137 43h-152l-82 -303h149q72 0 124.5 16.5t84.5 48.5q44 44 44 113q0 51 -31 82z" />
    <glyph glyph-name="Q" unicode="Q" horiz-adv-x="884" 
d="M519 740q72 0 131 -24.5t101.5 -67t66 -100t23.5 -124.5q0 -91 -37.5 -174.5t-102.5 -146.5l69 -81l-76 -55l-62 83q-48 -30 -102.5 -46.5t-115.5 -16.5q-71 0 -130 24.5t-101.5 67t-66 100.5t-23.5 125q0 88 35 169t96 143q57 57 132 90.5t163 33.5zM422 75q43 0 82 12
t73 33l-110 134l76 56l100 -135q46 50 72 114t26 131q0 49 -16 91.5t-45.5 74t-72 49t-95.5 17.5q-64 0 -118 -25t-96 -67q-50 -50 -77.5 -116.5t-27.5 -135.5q0 -50 16 -92.5t45.5 -74t72 -49t95.5 -17.5z" />
    <glyph glyph-name="R" unicode="R" horiz-adv-x="757" 
d="M386 274h-12h-171l-74 -274h-97l196 728h263q141 0 209 -68q25 -24 37.5 -57.5t12.5 -72.5q0 -48 -17 -88t-48 -72q-34 -34 -85 -55t-111 -32l146 -283h-111zM414 360q67 0 116.5 17t78.5 46q42 42 42 100q0 46 -29 75q-20 20 -53.5 31t-82.5 11h-185l-76 -280h189z" />
    <glyph glyph-name="R" unicode="&#x158;" horiz-adv-x="757" 
d="M386 274h-12h-171l-74 -274h-97l196 728h263q141 0 209 -68q25 -24 37.5 -57.5t12.5 -72.5q0 -48 -17 -88t-48 -72q-34 -34 -85 -55t-111 -32l146 -283h-111zM414 360q67 0 116.5 17t78.5 46q42 42 42 100q0 46 -29 75q-20 20 -53.5 31t-82.5 11h-185l-76 -280h189z" />
    <glyph glyph-name="R" unicode="&#x156;" horiz-adv-x="757" 
d="M386 274h-12h-171l-74 -274h-97l196 728h263q141 0 209 -68q25 -24 37.5 -57.5t12.5 -72.5q0 -48 -17 -88t-48 -72q-34 -34 -85 -55t-111 -32l146 -283h-111zM414 360q67 0 116.5 17t78.5 46q42 42 42 100q0 46 -29 75q-20 20 -53.5 31t-82.5 11h-185l-76 -280h189z" />
    <glyph glyph-name="R" unicode="&#x154;" horiz-adv-x="757" 
d="M386 274h-12h-171l-74 -274h-97l196 728h263q141 0 209 -68q25 -24 37.5 -57.5t12.5 -72.5q0 -48 -17 -88t-48 -72q-34 -34 -85 -55t-111 -32l146 -283h-111zM414 360q67 0 116.5 17t78.5 46q42 42 42 100q0 46 -29 75q-20 20 -53.5 31t-82.5 11h-185l-76 -280h189z" />
    <glyph glyph-name="S" unicode="S" horiz-adv-x="673" 
d="M314 -10q-102 0 -177.5 35.5t-123.5 101.5l74 59q45 -55 100 -83t133 -28q37 0 68 9.5t54 26t36 40t13 50.5q0 19 -7 35.5t-24 31t-45 29t-69 30.5q-48 19 -84.5 38.5t-61 42t-37.5 50.5t-13 64q0 39 14.5 74.5t42.5 63.5q38 37 92.5 57.5t122.5 20.5q87 0 152.5 -30.5
t107.5 -79.5l-69 -64q-40 44 -88.5 66.5t-110.5 22.5q-38 0 -68.5 -10t-51.5 -26.5t-32 -37.5t-11 -44q0 -21 8.5 -37.5t27.5 -31t48 -29t71 -30.5q45 -18 80 -36.5t58.5 -41.5t35.5 -51t12 -64q0 -43 -16 -79t-44 -65q-39 -38 -95.5 -59t-122.5 -21z" />
    <glyph glyph-name="S" unicode="&#x218;" horiz-adv-x="673" 
d="M314 -10q-102 0 -177.5 35.5t-123.5 101.5l74 59q45 -55 100 -83t133 -28q37 0 68 9.5t54 26t36 40t13 50.5q0 19 -7 35.5t-24 31t-45 29t-69 30.5q-48 19 -84.5 38.5t-61 42t-37.5 50.5t-13 64q0 39 14.5 74.5t42.5 63.5q38 37 92.5 57.5t122.5 20.5q87 0 152.5 -30.5
t107.5 -79.5l-69 -64q-40 44 -88.5 66.5t-110.5 22.5q-38 0 -68.5 -10t-51.5 -26.5t-32 -37.5t-11 -44q0 -21 8.5 -37.5t27.5 -31t48 -29t71 -30.5q45 -18 80 -36.5t58.5 -41.5t35.5 -51t12 -64q0 -43 -16 -79t-44 -65q-39 -38 -95.5 -59t-122.5 -21z" />
    <glyph glyph-name="S" unicode="&#x15e;" horiz-adv-x="673" 
d="M314 -10q-102 0 -177.5 35.5t-123.5 101.5l74 59q45 -55 100 -83t133 -28q37 0 68 9.5t54 26t36 40t13 50.5q0 19 -7 35.5t-24 31t-45 29t-69 30.5q-48 19 -84.5 38.5t-61 42t-37.5 50.5t-13 64q0 39 14.5 74.5t42.5 63.5q38 37 92.5 57.5t122.5 20.5q87 0 152.5 -30.5
t107.5 -79.5l-69 -64q-40 44 -88.5 66.5t-110.5 22.5q-38 0 -68.5 -10t-51.5 -26.5t-32 -37.5t-11 -44q0 -21 8.5 -37.5t27.5 -31t48 -29t71 -30.5q45 -18 80 -36.5t58.5 -41.5t35.5 -51t12 -64q0 -43 -16 -79t-44 -65q-39 -38 -95.5 -59t-122.5 -21z" />
    <glyph glyph-name="S" unicode="&#x15a;" horiz-adv-x="673" 
d="M314 -10q-102 0 -177.5 35.5t-123.5 101.5l74 59q45 -55 100 -83t133 -28q37 0 68 9.5t54 26t36 40t13 50.5q0 19 -7 35.5t-24 31t-45 29t-69 30.5q-48 19 -84.5 38.5t-61 42t-37.5 50.5t-13 64q0 39 14.5 74.5t42.5 63.5q38 37 92.5 57.5t122.5 20.5q87 0 152.5 -30.5
t107.5 -79.5l-69 -64q-40 44 -88.5 66.5t-110.5 22.5q-38 0 -68.5 -10t-51.5 -26.5t-32 -37.5t-11 -44q0 -21 8.5 -37.5t27.5 -31t48 -29t71 -30.5q45 -18 80 -36.5t58.5 -41.5t35.5 -51t12 -64q0 -43 -16 -79t-44 -65q-39 -38 -95.5 -59t-122.5 -21z" />
    <glyph glyph-name="T" unicode="T" horiz-adv-x="652" 
d="M373 639h-241l24 89h578l-23 -89h-241l-172 -639h-96z" />
    <glyph glyph-name="T" unicode="&#x21a;" horiz-adv-x="652" 
d="M373 639h-241l24 89h578l-23 -89h-241l-172 -639h-96z" />
    <glyph glyph-name="T" unicode="&#x164;" horiz-adv-x="652" 
d="M373 639h-241l24 89h578l-23 -89h-241l-172 -639h-96z" />
    <glyph glyph-name="T" unicode="&#x162;" horiz-adv-x="652" 
d="M373 639h-241l24 89h578l-23 -89h-241l-172 -639h-96z" />
    <glyph glyph-name="U" unicode="U" horiz-adv-x="800" 
d="M365 -11q-65 0 -114.5 17t-83 48t-51 74t-17.5 96q0 57 15 114l104 390h97l-109 -411q-11 -35 -11 -81q0 -34 11 -63t33.5 -50.5t56 -33.5t78.5 -12q44 0 83 15.5t71 47.5q28 28 51 70.5t39 99.5l112 418h96l-116 -434q-19 -70 -47.5 -123.5t-66.5 -91.5
q-92 -90 -231 -90z" />
    <glyph glyph-name="U" unicode="&#x172;" horiz-adv-x="800" 
d="M365 -11q-65 0 -114.5 17t-83 48t-51 74t-17.5 96q0 57 15 114l104 390h97l-109 -411q-11 -35 -11 -81q0 -34 11 -63t33.5 -50.5t56 -33.5t78.5 -12q44 0 83 15.5t71 47.5q28 28 51 70.5t39 99.5l112 418h96l-116 -434q-19 -70 -47.5 -123.5t-66.5 -91.5
q-92 -90 -231 -90z" />
    <glyph glyph-name="U" unicode="&#x170;" horiz-adv-x="800" 
d="M365 -11q-65 0 -114.5 17t-83 48t-51 74t-17.5 96q0 57 15 114l104 390h97l-109 -411q-11 -35 -11 -81q0 -34 11 -63t33.5 -50.5t56 -33.5t78.5 -12q44 0 83 15.5t71 47.5q28 28 51 70.5t39 99.5l112 418h96l-116 -434q-19 -70 -47.5 -123.5t-66.5 -91.5
q-92 -90 -231 -90z" />
    <glyph glyph-name="U" unicode="&#x16e;" horiz-adv-x="800" 
d="M365 -11q-65 0 -114.5 17t-83 48t-51 74t-17.5 96q0 57 15 114l104 390h97l-109 -411q-11 -35 -11 -81q0 -34 11 -63t33.5 -50.5t56 -33.5t78.5 -12q44 0 83 15.5t71 47.5q28 28 51 70.5t39 99.5l112 418h96l-116 -434q-19 -70 -47.5 -123.5t-66.5 -91.5
q-92 -90 -231 -90z" />
    <glyph glyph-name="U" unicode="&#x16c;" horiz-adv-x="800" 
d="M365 -11q-65 0 -114.5 17t-83 48t-51 74t-17.5 96q0 57 15 114l104 390h97l-109 -411q-11 -35 -11 -81q0 -34 11 -63t33.5 -50.5t56 -33.5t78.5 -12q44 0 83 15.5t71 47.5q28 28 51 70.5t39 99.5l112 418h96l-116 -434q-19 -70 -47.5 -123.5t-66.5 -91.5
q-92 -90 -231 -90z" />
    <glyph glyph-name="U" unicode="&#x16a;" horiz-adv-x="800" 
d="M365 -11q-65 0 -114.5 17t-83 48t-51 74t-17.5 96q0 57 15 114l104 390h97l-109 -411q-11 -35 -11 -81q0 -34 11 -63t33.5 -50.5t56 -33.5t78.5 -12q44 0 83 15.5t71 47.5q28 28 51 70.5t39 99.5l112 418h96l-116 -434q-19 -70 -47.5 -123.5t-66.5 -91.5
q-92 -90 -231 -90z" />
    <glyph glyph-name="V" unicode="V" horiz-adv-x="757" 
d="M146 728h102l82 -605l407 605h109l-504 -733h-86z" />
    <glyph glyph-name="W" unicode="W" horiz-adv-x="1141" 
d="M153 728h100l40 -586l350 588h80l37 -588l354 586h109l-454 -733h-86l-40 566l-344 -566h-85z" />
    <glyph glyph-name="W" unicode="&#x1e84;" horiz-adv-x="1141" 
d="M153 728h100l40 -586l350 588h80l37 -588l354 586h109l-454 -733h-86l-40 566l-344 -566h-85z" />
    <glyph glyph-name="W" unicode="&#x1e82;" horiz-adv-x="1141" 
d="M153 728h100l40 -586l350 588h80l37 -588l354 586h109l-454 -733h-86l-40 566l-344 -566h-85z" />
    <glyph glyph-name="W" unicode="&#x1e80;" horiz-adv-x="1141" 
d="M153 728h100l40 -586l350 588h80l37 -588l354 586h109l-454 -733h-86l-40 566l-344 -566h-85z" />
    <glyph glyph-name="W" unicode="&#x174;" horiz-adv-x="1141" 
d="M153 728h100l40 -586l350 588h80l37 -588l354 586h109l-454 -733h-86l-40 566l-344 -566h-85z" />
    <glyph glyph-name="X" unicode="X" horiz-adv-x="733" 
d="M338 377l-178 351h107l141 -286l275 286h123l-356 -364l184 -364h-107l-147 299l-287 -299h-124z" />
    <glyph glyph-name="Y" unicode="Y" horiz-adv-x="697" 
d="M300 292l-175 436h107l134 -355l327 355h121l-422 -450l-74 -278h-97z" />
    <glyph glyph-name="Y" unicode="&#x1ef2;" horiz-adv-x="697" 
d="M300 292l-175 436h107l134 -355l327 355h121l-422 -450l-74 -278h-97z" />
    <glyph glyph-name="Y" unicode="&#x176;" horiz-adv-x="697" 
d="M300 292l-175 436h107l134 -355l327 355h121l-422 -450l-74 -278h-97z" />
    <glyph glyph-name="Z" unicode="Z" horiz-adv-x="710" 
d="M3 67l602 576h-432l23 85h569l-18 -67l-602 -576h451l-23 -85h-588z" />
    <glyph glyph-name="Z" unicode="&#x17b;" horiz-adv-x="710" 
d="M3 67l602 576h-432l23 85h569l-18 -67l-602 -576h451l-23 -85h-588z" />
    <glyph glyph-name="Z" unicode="&#x179;" horiz-adv-x="710" 
d="M3 67l602 576h-432l23 85h569l-18 -67l-602 -576h451l-23 -85h-588z" />
    <glyph glyph-name="bracketleft" unicode="[" horiz-adv-x="472" 
d="M243 728h304l-20 -73h-215l-192 -717h215l-19 -73h-305z" />
    <glyph glyph-name="backslash" unicode="\" horiz-adv-x="542" 
d="M146 830h80l224 -963h-80z" />
    <glyph glyph-name="bracketright" unicode="]" horiz-adv-x="472" 
d="M242 -135h-305l21 73h215l192 717h-215l19 73h305z" />
    <glyph glyph-name="underscore" unicode="_" horiz-adv-x="634" 
d="M-94 -91h629l-20 -75h-629z" />
    <glyph glyph-name="grave" unicode="`" 
d="M290 733l94 42l60 -156h-65z" />
    <glyph glyph-name="a" unicode="a" horiz-adv-x="611" 
d="M191 -12q-34 0 -64.5 10t-54 29t-37 47t-13.5 63q0 41 13.5 73t38.5 57q32 32 80.5 49t107.5 17q53 0 100 -8.5t85 -19.5l3 12q3 11 5 24t2 24q0 48 -33.5 74.5t-104.5 26.5q-42 0 -79.5 -7.5t-72.5 -21.5l-15 78q41 16 85 25t98 9q104 0 159 -44.5t55 -123.5
q0 -18 -3.5 -37t-8.5 -39l-81 -305h-91l21 81q-37 -42 -85 -67.5t-110 -25.5zM224 60q32 0 63.5 11t58.5 31t47 48t29 61l10 34q-33 9 -74 15.5t-88 6.5q-79 0 -121 -42q-31 -31 -31 -77q0 -40 28.5 -64t77.5 -24z" />
    <glyph glyph-name="a" unicode="&#x1fb;" horiz-adv-x="611" 
d="M191 -12q-34 0 -64.5 10t-54 29t-37 47t-13.5 63q0 41 13.5 73t38.5 57q32 32 80.5 49t107.5 17q53 0 100 -8.5t85 -19.5l3 12q3 11 5 24t2 24q0 48 -33.5 74.5t-104.5 26.5q-42 0 -79.5 -7.5t-72.5 -21.5l-15 78q41 16 85 25t98 9q104 0 159 -44.5t55 -123.5
q0 -18 -3.5 -37t-8.5 -39l-81 -305h-91l21 81q-37 -42 -85 -67.5t-110 -25.5zM224 60q32 0 63.5 11t58.5 31t47 48t29 61l10 34q-33 9 -74 15.5t-88 6.5q-79 0 -121 -42q-31 -31 -31 -77q0 -40 28.5 -64t77.5 -24z" />
    <glyph glyph-name="a" unicode="&#x105;" horiz-adv-x="611" 
d="M191 -12q-34 0 -64.5 10t-54 29t-37 47t-13.5 63q0 41 13.5 73t38.5 57q32 32 80.5 49t107.5 17q53 0 100 -8.5t85 -19.5l3 12q3 11 5 24t2 24q0 48 -33.5 74.5t-104.5 26.5q-42 0 -79.5 -7.5t-72.5 -21.5l-15 78q41 16 85 25t98 9q104 0 159 -44.5t55 -123.5
q0 -18 -3.5 -37t-8.5 -39l-81 -305h-91l21 81q-37 -42 -85 -67.5t-110 -25.5zM224 60q32 0 63.5 11t58.5 31t47 48t29 61l10 34q-33 9 -74 15.5t-88 6.5q-79 0 -121 -42q-31 -31 -31 -77q0 -40 28.5 -64t77.5 -24z" />
    <glyph glyph-name="a" unicode="&#x103;" horiz-adv-x="611" 
d="M191 -12q-34 0 -64.5 10t-54 29t-37 47t-13.5 63q0 41 13.5 73t38.5 57q32 32 80.5 49t107.5 17q53 0 100 -8.5t85 -19.5l3 12q3 11 5 24t2 24q0 48 -33.5 74.5t-104.5 26.5q-42 0 -79.5 -7.5t-72.5 -21.5l-15 78q41 16 85 25t98 9q104 0 159 -44.5t55 -123.5
q0 -18 -3.5 -37t-8.5 -39l-81 -305h-91l21 81q-37 -42 -85 -67.5t-110 -25.5zM224 60q32 0 63.5 11t58.5 31t47 48t29 61l10 34q-33 9 -74 15.5t-88 6.5q-79 0 -121 -42q-31 -31 -31 -77q0 -40 28.5 -64t77.5 -24z" />
    <glyph glyph-name="a" unicode="&#x101;" horiz-adv-x="611" 
d="M191 -12q-34 0 -64.5 10t-54 29t-37 47t-13.5 63q0 41 13.5 73t38.5 57q32 32 80.5 49t107.5 17q53 0 100 -8.5t85 -19.5l3 12q3 11 5 24t2 24q0 48 -33.5 74.5t-104.5 26.5q-42 0 -79.5 -7.5t-72.5 -21.5l-15 78q41 16 85 25t98 9q104 0 159 -44.5t55 -123.5
q0 -18 -3.5 -37t-8.5 -39l-81 -305h-91l21 81q-37 -42 -85 -67.5t-110 -25.5zM224 60q32 0 63.5 11t58.5 31t47 48t29 61l10 34q-33 9 -74 15.5t-88 6.5q-79 0 -121 -42q-31 -31 -31 -77q0 -40 28.5 -64t77.5 -24z" />
    <glyph glyph-name="b" unicode="b" horiz-adv-x="698" 
d="M340 -12q-40 0 -71.5 10t-55.5 27.5t-41 40t-29 48.5l-30 -114h-94l204 759h94l-83 -304q38 42 85.5 70t109.5 28q46 0 85 -16.5t67.5 -46.5t45 -72.5t16.5 -94.5q0 -75 -27.5 -138.5t-72.5 -108.5q-42 -42 -94 -65t-109 -23zM330 70q41 0 77 16t64 44q35 35 54 83
t19 102q0 72 -40 114t-105 42q-41 0 -79.5 -18t-70.5 -50q-35 -34 -55.5 -79t-20.5 -96q0 -33 11.5 -62t32 -50.5t49.5 -33.5t64 -12z" />
    <glyph glyph-name="c" unicode="c" horiz-adv-x="594" 
d="M296 -12q-49 0 -93 16t-77 47t-52.5 74.5t-19.5 99.5q0 68 26 128t71 105q44 44 101 69.5t120 25.5q43 0 77 -10.5t61 -27.5t46.5 -40t32.5 -48l-75 -49q-11 19 -25 36t-31.5 29.5t-40.5 19.5t-52 7q-39 0 -75.5 -17t-65.5 -46q-34 -34 -54.5 -81t-20.5 -99
q0 -38 12.5 -67t33 -49t48 -30.5t57.5 -10.5q46 0 82 18t71 49l53 -61q-42 -39 -92 -63.5t-118 -24.5z" />
    <glyph glyph-name="c" unicode="&#x10d;" horiz-adv-x="594" 
d="M296 -12q-49 0 -93 16t-77 47t-52.5 74.5t-19.5 99.5q0 68 26 128t71 105q44 44 101 69.5t120 25.5q43 0 77 -10.5t61 -27.5t46.5 -40t32.5 -48l-75 -49q-11 19 -25 36t-31.5 29.5t-40.5 19.5t-52 7q-39 0 -75.5 -17t-65.5 -46q-34 -34 -54.5 -81t-20.5 -99
q0 -38 12.5 -67t33 -49t48 -30.5t57.5 -10.5q46 0 82 18t71 49l53 -61q-42 -39 -92 -63.5t-118 -24.5z" />
    <glyph glyph-name="c" unicode="&#x10b;" horiz-adv-x="594" 
d="M296 -12q-49 0 -93 16t-77 47t-52.5 74.5t-19.5 99.5q0 68 26 128t71 105q44 44 101 69.5t120 25.5q43 0 77 -10.5t61 -27.5t46.5 -40t32.5 -48l-75 -49q-11 19 -25 36t-31.5 29.5t-40.5 19.5t-52 7q-39 0 -75.5 -17t-65.5 -46q-34 -34 -54.5 -81t-20.5 -99
q0 -38 12.5 -67t33 -49t48 -30.5t57.5 -10.5q46 0 82 18t71 49l53 -61q-42 -39 -92 -63.5t-118 -24.5z" />
    <glyph glyph-name="c" unicode="&#x107;" horiz-adv-x="594" 
d="M296 -12q-49 0 -93 16t-77 47t-52.5 74.5t-19.5 99.5q0 68 26 128t71 105q44 44 101 69.5t120 25.5q43 0 77 -10.5t61 -27.5t46.5 -40t32.5 -48l-75 -49q-11 19 -25 36t-31.5 29.5t-40.5 19.5t-52 7q-39 0 -75.5 -17t-65.5 -46q-34 -34 -54.5 -81t-20.5 -99
q0 -38 12.5 -67t33 -49t48 -30.5t57.5 -10.5q46 0 82 18t71 49l53 -61q-42 -39 -92 -63.5t-118 -24.5z" />
    <glyph glyph-name="d" unicode="d" horiz-adv-x="698" 
d="M464 86q-38 -42 -85.5 -70t-109.5 -28q-46 0 -85 16.5t-67.5 46.5t-44.5 72.5t-16 94.5q0 75 27 138.5t73 108.5q42 42 94 65t109 23q40 0 71 -10t55 -27.5t41 -40.5t29 -48l89 332h94l-203 -759h-94zM299 70q42 0 80.5 17.5t70.5 49.5q34 35 55 80t21 95q0 34 -11.5 63
t-32.5 50.5t-50 33.5t-64 12q-41 0 -77 -16t-63 -44q-35 -35 -54.5 -83t-19.5 -103q0 -71 40 -113t105 -42z" />
    <glyph glyph-name="e" unicode="e" horiz-adv-x="626" 
d="M145 238v-15q0 -69 40.5 -113t113.5 -44q48 0 86.5 16t75.5 45l46 -61q-41 -35 -92.5 -56.5t-123.5 -21.5q-54 0 -97.5 17t-75 47.5t-48.5 73t-17 94.5q0 66 27 129.5t75 111.5q42 42 96.5 67t118.5 25q51 0 90.5 -16.5t66.5 -45t40.5 -66.5t13.5 -81q0 -55 -20 -106
h-416zM222 413q-45 -45 -65 -108h329q2 8 3 17.5t1 23.5q0 26 -7.5 49t-22.5 40.5t-39 28t-57 10.5q-42 0 -78 -16.5t-64 -44.5z" />
    <glyph glyph-name="e" unicode="&#x11b;" horiz-adv-x="626" 
d="M145 238v-15q0 -69 40.5 -113t113.5 -44q48 0 86.5 16t75.5 45l46 -61q-41 -35 -92.5 -56.5t-123.5 -21.5q-54 0 -97.5 17t-75 47.5t-48.5 73t-17 94.5q0 66 27 129.5t75 111.5q42 42 96.5 67t118.5 25q51 0 90.5 -16.5t66.5 -45t40.5 -66.5t13.5 -81q0 -55 -20 -106
h-416zM222 413q-45 -45 -65 -108h329q2 8 3 17.5t1 23.5q0 26 -7.5 49t-22.5 40.5t-39 28t-57 10.5q-42 0 -78 -16.5t-64 -44.5z" />
    <glyph glyph-name="e" unicode="&#x119;" horiz-adv-x="626" 
d="M145 238v-15q0 -69 40.5 -113t113.5 -44q48 0 86.5 16t75.5 45l46 -61q-41 -35 -92.5 -56.5t-123.5 -21.5q-54 0 -97.5 17t-75 47.5t-48.5 73t-17 94.5q0 66 27 129.5t75 111.5q42 42 96.5 67t118.5 25q51 0 90.5 -16.5t66.5 -45t40.5 -66.5t13.5 -81q0 -55 -20 -106
h-416zM222 413q-45 -45 -65 -108h329q2 8 3 17.5t1 23.5q0 26 -7.5 49t-22.5 40.5t-39 28t-57 10.5q-42 0 -78 -16.5t-64 -44.5z" />
    <glyph glyph-name="e" unicode="&#x117;" horiz-adv-x="626" 
d="M145 238v-15q0 -69 40.5 -113t113.5 -44q48 0 86.5 16t75.5 45l46 -61q-41 -35 -92.5 -56.5t-123.5 -21.5q-54 0 -97.5 17t-75 47.5t-48.5 73t-17 94.5q0 66 27 129.5t75 111.5q42 42 96.5 67t118.5 25q51 0 90.5 -16.5t66.5 -45t40.5 -66.5t13.5 -81q0 -55 -20 -106
h-416zM222 413q-45 -45 -65 -108h329q2 8 3 17.5t1 23.5q0 26 -7.5 49t-22.5 40.5t-39 28t-57 10.5q-42 0 -78 -16.5t-64 -44.5z" />
    <glyph glyph-name="e" unicode="&#x115;" horiz-adv-x="626" 
d="M145 238v-15q0 -69 40.5 -113t113.5 -44q48 0 86.5 16t75.5 45l46 -61q-41 -35 -92.5 -56.5t-123.5 -21.5q-54 0 -97.5 17t-75 47.5t-48.5 73t-17 94.5q0 66 27 129.5t75 111.5q42 42 96.5 67t118.5 25q51 0 90.5 -16.5t66.5 -45t40.5 -66.5t13.5 -81q0 -55 -20 -106
h-416zM222 413q-45 -45 -65 -108h329q2 8 3 17.5t1 23.5q0 26 -7.5 49t-22.5 40.5t-39 28t-57 10.5q-42 0 -78 -16.5t-64 -44.5z" />
    <glyph glyph-name="e" unicode="&#x113;" horiz-adv-x="626" 
d="M145 238v-15q0 -69 40.5 -113t113.5 -44q48 0 86.5 16t75.5 45l46 -61q-41 -35 -92.5 -56.5t-123.5 -21.5q-54 0 -97.5 17t-75 47.5t-48.5 73t-17 94.5q0 66 27 129.5t75 111.5q42 42 96.5 67t118.5 25q51 0 90.5 -16.5t66.5 -45t40.5 -66.5t13.5 -81q0 -55 -20 -106
h-416zM222 413q-45 -45 -65 -108h329q2 8 3 17.5t1 23.5q0 26 -7.5 49t-22.5 40.5t-39 28t-57 10.5q-42 0 -78 -16.5t-64 -44.5z" />
    <glyph glyph-name="f" unicode="f" horiz-adv-x="407" 
d="M172 459h-72l22 82h72l15 55q10 40 25 68t35 49q50 49 133 49q31 0 58.5 -5.5t48.5 -15.5l-22 -80q-22 10 -42 15t-43 5q-37 0 -63 -22.5t-39 -71.5l-13 -46h169l-22 -82h-168l-123 -459h-94z" />
    <glyph glyph-name="g" unicode="g" horiz-adv-x="697" 
d="M256 -168q-76 0 -146.5 24t-121.5 66l56 66q43 -35 96 -56.5t113 -21.5q50 0 86 14.5t61 39.5q23 23 38 53t26 70l13 48q-42 -42 -89.5 -67.5t-111.5 -25.5q-42 0 -81 13.5t-69 39t-48 63t-18 85.5q0 67 25 122.5t67 97.5q42 43 97.5 66.5t113.5 23.5q42 0 73 -10.5
t53.5 -28t38.5 -39.5t27 -46l29 112h94l-122 -458q-18 -67 -38.5 -106t-50.5 -69q-38 -38 -89 -57t-122 -19zM307 121q44 0 84 18t71 49q29 29 46 65t17 75q0 28 -11 54t-31 46t-49 31.5t-65 11.5q-42 0 -80 -16.5t-67 -45.5t-46 -67.5t-17 -84.5q0 -34 12 -59.5t32.5 -42.5
t47 -25.5t56.5 -8.5z" />
    <glyph glyph-name="g" unicode="&#x123;" horiz-adv-x="697" 
d="M256 -168q-76 0 -146.5 24t-121.5 66l56 66q43 -35 96 -56.5t113 -21.5q50 0 86 14.5t61 39.5q23 23 38 53t26 70l13 48q-42 -42 -89.5 -67.5t-111.5 -25.5q-42 0 -81 13.5t-69 39t-48 63t-18 85.5q0 67 25 122.5t67 97.5q42 43 97.5 66.5t113.5 23.5q42 0 73 -10.5
t53.5 -28t38.5 -39.5t27 -46l29 112h94l-122 -458q-18 -67 -38.5 -106t-50.5 -69q-38 -38 -89 -57t-122 -19zM307 121q44 0 84 18t71 49q29 29 46 65t17 75q0 28 -11 54t-31 46t-49 31.5t-65 11.5q-42 0 -80 -16.5t-67 -45.5t-46 -67.5t-17 -84.5q0 -34 12 -59.5t32.5 -42.5
t47 -25.5t56.5 -8.5z" />
    <glyph glyph-name="g" unicode="&#x121;" horiz-adv-x="697" 
d="M256 -168q-76 0 -146.5 24t-121.5 66l56 66q43 -35 96 -56.5t113 -21.5q50 0 86 14.5t61 39.5q23 23 38 53t26 70l13 48q-42 -42 -89.5 -67.5t-111.5 -25.5q-42 0 -81 13.5t-69 39t-48 63t-18 85.5q0 67 25 122.5t67 97.5q42 43 97.5 66.5t113.5 23.5q42 0 73 -10.5
t53.5 -28t38.5 -39.5t27 -46l29 112h94l-122 -458q-18 -67 -38.5 -106t-50.5 -69q-38 -38 -89 -57t-122 -19zM307 121q44 0 84 18t71 49q29 29 46 65t17 75q0 28 -11 54t-31 46t-49 31.5t-65 11.5q-42 0 -80 -16.5t-67 -45.5t-46 -67.5t-17 -84.5q0 -34 12 -59.5t32.5 -42.5
t47 -25.5t56.5 -8.5z" />
    <glyph glyph-name="g" unicode="&#x11f;" horiz-adv-x="697" 
d="M256 -168q-76 0 -146.5 24t-121.5 66l56 66q43 -35 96 -56.5t113 -21.5q50 0 86 14.5t61 39.5q23 23 38 53t26 70l13 48q-42 -42 -89.5 -67.5t-111.5 -25.5q-42 0 -81 13.5t-69 39t-48 63t-18 85.5q0 67 25 122.5t67 97.5q42 43 97.5 66.5t113.5 23.5q42 0 73 -10.5
t53.5 -28t38.5 -39.5t27 -46l29 112h94l-122 -458q-18 -67 -38.5 -106t-50.5 -69q-38 -38 -89 -57t-122 -19zM307 121q44 0 84 18t71 49q29 29 46 65t17 75q0 28 -11 54t-31 46t-49 31.5t-65 11.5q-42 0 -80 -16.5t-67 -45.5t-46 -67.5t-17 -84.5q0 -34 12 -59.5t32.5 -42.5
t47 -25.5t56.5 -8.5z" />
    <glyph glyph-name="h" unicode="h" horiz-adv-x="648" 
d="M223 759h94l-81 -300q34 38 77.5 66t102.5 28q78 0 124 -45t46 -121q0 -20 -4.5 -42.5t-9.5 -44.5l-79 -300h-94l81 305q4 14 6 30t2 29q0 49 -29.5 76.5t-82.5 27.5q-30 0 -58.5 -12t-52.5 -33.5t-42.5 -51.5t-28.5 -66l-81 -305h-94z" />
    <glyph glyph-name="h" unicode="&#x127;" horiz-adv-x="648" 
d="M223 759h94l-81 -300q34 38 77.5 66t102.5 28q78 0 124 -45t46 -121q0 -20 -4.5 -42.5t-9.5 -44.5l-79 -300h-94l81 305q4 14 6 30t2 29q0 49 -29.5 76.5t-82.5 27.5q-30 0 -58.5 -12t-52.5 -33.5t-42.5 -51.5t-28.5 -66l-81 -305h-94z" />
    <glyph glyph-name="i" unicode="i" horiz-adv-x="292" 
d="M172 541h93l-145 -541h-94zM222 747h105l-27 -98h-105z" />
    <glyph glyph-name="i" unicode="&#x12f;" horiz-adv-x="292" 
d="M172 541h93l-145 -541h-94zM222 747h105l-27 -98h-105z" />
    <glyph glyph-name="i" unicode="&#x12d;" horiz-adv-x="292" 
d="M172 541h93l-145 -541h-94zM222 747h105l-27 -98h-105z" />
    <glyph glyph-name="i" unicode="&#x12b;" horiz-adv-x="292" 
d="M172 541h93l-145 -541h-94zM222 747h105l-27 -98h-105z" />
    <glyph glyph-name="j" unicode="j" horiz-adv-x="291" 
d="M-47 -170q-39 0 -73 10l20 77q11 -3 22.5 -5t22.5 -2q26 0 46.5 18t30.5 55l150 558h93l-152 -568q-20 -75 -61.5 -109t-98.5 -34zM222 747h104l-26 -98h-105z" />
    <glyph glyph-name="k" unicode="k" horiz-adv-x="605" 
d="M223 759h94l-133 -495l337 277h127l-285 -229l143 -312h-106l-116 252l-132 -106l-39 -146h-94z" />
    <glyph glyph-name="k" unicode="&#x137;" horiz-adv-x="605" 
d="M223 759h94l-133 -495l337 277h127l-285 -229l143 -312h-106l-116 252l-132 -106l-39 -146h-94z" />
    <glyph glyph-name="l" unicode="l" horiz-adv-x="292" 
d="M230 759h94l-204 -759h-94z" />
    <glyph glyph-name="l" unicode="&#x140;" horiz-adv-x="292" 
d="M230 759h94l-204 -759h-94z" />
    <glyph glyph-name="l" unicode="&#x13e;" horiz-adv-x="292" 
d="M230 759h94l-204 -759h-94z" />
    <glyph glyph-name="l" unicode="&#x13c;" horiz-adv-x="292" 
d="M230 759h94l-204 -759h-94z" />
    <glyph glyph-name="l" unicode="&#x13a;" horiz-adv-x="292" 
d="M230 759h94l-204 -759h-94z" />
    <glyph glyph-name="m" unicode="m" horiz-adv-x="998" 
d="M164 541h94l-22 -82q18 19 36 36.5t39 30t45 20t53 7.5q33 0 58.5 -9.5t44 -26t31 -38t18.5 -44.5q36 54 89 86t124 32q36 0 66.5 -12t52 -33.5t33.5 -52.5t12 -68q0 -20 -5 -42.5t-11 -44.5l-79 -300h-94l81 305q4 14 6 30t2 29q0 48 -27.5 76t-77.5 28q-29 0 -56 -12
t-50 -34t-41 -51.5t-27 -65.5l-81 -305h-94l82 305q4 14 6 30t2 29q0 48 -28 76t-77 28q-29 0 -56 -12t-50.5 -34t-41 -51.5t-27.5 -65.5l-81 -305h-94z" />
    <glyph glyph-name="n" unicode="n" horiz-adv-x="650" 
d="M164 541h94l-22 -82q34 38 77.5 66t102.5 28q78 0 124 -45t46 -121q0 -20 -4.5 -42.5t-9.5 -44.5l-79 -300h-94l81 305q4 14 6 30t2 29q0 49 -29.5 76.5t-82.5 27.5q-30 0 -58.5 -12t-52.5 -33.5t-42.5 -51.5t-28.5 -66l-81 -305h-94z" />
    <glyph glyph-name="n" unicode="&#x148;" horiz-adv-x="650" 
d="M164 541h94l-22 -82q34 38 77.5 66t102.5 28q78 0 124 -45t46 -121q0 -20 -4.5 -42.5t-9.5 -44.5l-79 -300h-94l81 305q4 14 6 30t2 29q0 49 -29.5 76.5t-82.5 27.5q-30 0 -58.5 -12t-52.5 -33.5t-42.5 -51.5t-28.5 -66l-81 -305h-94z" />
    <glyph glyph-name="n" unicode="&#x146;" horiz-adv-x="650" 
d="M164 541h94l-22 -82q34 38 77.5 66t102.5 28q78 0 124 -45t46 -121q0 -20 -4.5 -42.5t-9.5 -44.5l-79 -300h-94l81 305q4 14 6 30t2 29q0 49 -29.5 76.5t-82.5 27.5q-30 0 -58.5 -12t-52.5 -33.5t-42.5 -51.5t-28.5 -66l-81 -305h-94z" />
    <glyph glyph-name="n" unicode="&#x144;" horiz-adv-x="650" 
d="M164 541h94l-22 -82q34 38 77.5 66t102.5 28q78 0 124 -45t46 -121q0 -20 -4.5 -42.5t-9.5 -44.5l-79 -300h-94l81 305q4 14 6 30t2 29q0 49 -29.5 76.5t-82.5 27.5q-30 0 -58.5 -12t-52.5 -33.5t-42.5 -51.5t-28.5 -66l-81 -305h-94z" />
    <glyph glyph-name="o" unicode="o" horiz-adv-x="676" 
d="M372 553q57 0 103 -18.5t78.5 -51t50 -77t17.5 -97.5q0 -64 -25.5 -122.5t-70.5 -103.5q-44 -44 -100.5 -69.5t-121.5 -25.5q-56 0 -102 18t-78.5 50.5t-50.5 77.5t-18 98q0 64 26 122.5t71 103.5q44 43 100.5 69t120.5 26zM309 70q42 0 78.5 17t65.5 46q35 35 54 80.5
t19 92.5q0 78 -44 121t-116 43q-41 0 -77.5 -17t-65.5 -46q-35 -34 -54.5 -80t-19.5 -92q0 -79 44 -122t116 -43z" />
    <glyph glyph-name="o" unicode="&#x1ff;" horiz-adv-x="676" 
d="M372 553q57 0 103 -18.5t78.5 -51t50 -77t17.5 -97.5q0 -64 -25.5 -122.5t-70.5 -103.5q-44 -44 -100.5 -69.5t-121.5 -25.5q-56 0 -102 18t-78.5 50.5t-50.5 77.5t-18 98q0 64 26 122.5t71 103.5q44 43 100.5 69t120.5 26zM309 70q42 0 78.5 17t65.5 46q35 35 54 80.5
t19 92.5q0 78 -44 121t-116 43q-41 0 -77.5 -17t-65.5 -46q-35 -34 -54.5 -80t-19.5 -92q0 -79 44 -122t116 -43z" />
    <glyph glyph-name="o" unicode="&#x151;" horiz-adv-x="676" 
d="M372 553q57 0 103 -18.5t78.5 -51t50 -77t17.5 -97.5q0 -64 -25.5 -122.5t-70.5 -103.5q-44 -44 -100.5 -69.5t-121.5 -25.5q-56 0 -102 18t-78.5 50.5t-50.5 77.5t-18 98q0 64 26 122.5t71 103.5q44 43 100.5 69t120.5 26zM309 70q42 0 78.5 17t65.5 46q35 35 54 80.5
t19 92.5q0 78 -44 121t-116 43q-41 0 -77.5 -17t-65.5 -46q-35 -34 -54.5 -80t-19.5 -92q0 -79 44 -122t116 -43z" />
    <glyph glyph-name="o" unicode="&#x14f;" horiz-adv-x="676" 
d="M372 553q57 0 103 -18.5t78.5 -51t50 -77t17.5 -97.5q0 -64 -25.5 -122.5t-70.5 -103.5q-44 -44 -100.5 -69.5t-121.5 -25.5q-56 0 -102 18t-78.5 50.5t-50.5 77.5t-18 98q0 64 26 122.5t71 103.5q44 43 100.5 69t120.5 26zM309 70q42 0 78.5 17t65.5 46q35 35 54 80.5
t19 92.5q0 78 -44 121t-116 43q-41 0 -77.5 -17t-65.5 -46q-35 -34 -54.5 -80t-19.5 -92q0 -79 44 -122t116 -43z" />
    <glyph glyph-name="o" unicode="&#x14d;" horiz-adv-x="676" 
d="M372 553q57 0 103 -18.5t78.5 -51t50 -77t17.5 -97.5q0 -64 -25.5 -122.5t-70.5 -103.5q-44 -44 -100.5 -69.5t-121.5 -25.5q-56 0 -102 18t-78.5 50.5t-50.5 77.5t-18 98q0 64 26 122.5t71 103.5q44 43 100.5 69t120.5 26zM309 70q42 0 78.5 17t65.5 46q35 35 54 80.5
t19 92.5q0 78 -44 121t-116 43q-41 0 -77.5 -17t-65.5 -46q-35 -34 -54.5 -80t-19.5 -92q0 -79 44 -122t116 -43z" />
    <glyph glyph-name="p" unicode="p" horiz-adv-x="698" 
d="M340 -12q-40 0 -71.5 10t-55.5 27.5t-41 40t-29 48.5l-75 -280h-94l190 707h94l-24 -86q38 42 85.5 70t109.5 28q46 0 85 -16.5t67.5 -46.5t45 -72.5t16.5 -94.5q0 -75 -27.5 -138.5t-72.5 -108.5q-42 -42 -94 -65t-109 -23zM330 70q41 0 77 16t64 44q35 35 54 83t19 102
q0 72 -40 114t-105 42q-41 0 -79.5 -18t-70.5 -50q-35 -34 -55.5 -79t-20.5 -96q0 -33 11.5 -62t32 -50.5t49.5 -33.5t64 -12z" />
    <glyph glyph-name="q" unicode="q" horiz-adv-x="698" 
d="M269 -12q-46 0 -85 16.5t-67.5 46.5t-44.5 72.5t-16 94.5q0 75 27 138.5t73 108.5q42 42 94 65t109 23q40 0 71 -10t55 -27.5t41 -40.5t29 -48l31 114h94l-190 -707h-94l68 252q-38 -42 -85.5 -70t-109.5 -28zM299 70q42 0 80.5 17.5t70.5 49.5q34 35 55 80t21 95
q0 34 -11.5 63t-32.5 50.5t-50 33.5t-64 12q-41 0 -77 -16t-63 -44q-35 -35 -54.5 -83t-19.5 -103q0 -71 40 -113t105 -42z" />
    <glyph glyph-name="r" unicode="r" horiz-adv-x="431" 
d="M164 541h94l-36 -135q48 69 109 109t139 35l-27 -99h-5q-44 0 -85 -15.5t-76.5 -46t-63.5 -75.5t-44 -105l-56 -209h-94z" />
    <glyph glyph-name="s" unicode="s" horiz-adv-x="527" 
d="M231 -12q-63 0 -125.5 23.5t-109.5 71.5l58 60q44 -43 91 -61t94 -18q21 0 41 6t35 17t24 26t9 34q0 25 -20.5 44.5t-74.5 39.5q-36 14 -64.5 28.5t-48.5 32t-30.5 39.5t-10.5 51q0 36 14.5 67t41.5 54t65 36t86 13q61 0 115 -22.5t88 -51.5l-54 -63q-35 28 -75 44.5
t-82 16.5q-52 0 -79 -23t-27 -55q0 -12 5 -22.5t16.5 -20.5t31 -20.5t48.5 -22.5q35 -14 62.5 -29t46.5 -32.5t29 -39t10 -48.5q0 -39 -16.5 -71t-45 -55.5t-66.5 -36t-82 -12.5z" />
    <glyph glyph-name="t" unicode="t" horiz-adv-x="430" 
d="M213 -9q-60 0 -96.5 27.5t-36.5 78.5q0 14 2.5 29.5t5.5 29.5l82 303h-73l22 82h73l42 159h94l-43 -159h163l-22 -82h-163l-79 -296q-5 -20 -5 -37q0 -26 18.5 -39t50.5 -13q35 0 79 18l-23 -84q-41 -17 -91 -17z" />
    <glyph glyph-name="t" unicode="&#x21b;" horiz-adv-x="430" 
d="M213 -9q-60 0 -96.5 27.5t-36.5 78.5q0 14 2.5 29.5t5.5 29.5l82 303h-73l22 82h73l42 159h94l-43 -159h163l-22 -82h-163l-79 -296q-5 -20 -5 -37q0 -26 18.5 -39t50.5 -13q35 0 79 18l-23 -84q-41 -17 -91 -17z" />
    <glyph glyph-name="t" unicode="&#x165;" horiz-adv-x="430" 
d="M213 -9q-60 0 -96.5 27.5t-36.5 78.5q0 14 2.5 29.5t5.5 29.5l82 303h-73l22 82h73l42 159h94l-43 -159h163l-22 -82h-163l-79 -296q-5 -20 -5 -37q0 -26 18.5 -39t50.5 -13q35 0 79 18l-23 -84q-41 -17 -91 -17z" />
    <glyph glyph-name="t" unicode="&#x163;" horiz-adv-x="430" 
d="M213 -9q-60 0 -96.5 27.5t-36.5 78.5q0 14 2.5 29.5t5.5 29.5l82 303h-73l22 82h73l42 159h94l-43 -159h163l-22 -82h-163l-79 -296q-5 -20 -5 -37q0 -26 18.5 -39t50.5 -13q35 0 79 18l-23 -84q-41 -17 -91 -17z" />
    <glyph glyph-name="u" unicode="u" horiz-adv-x="648" 
d="M232 -12q-78 0 -124 45t-46 121q0 20 4.5 43t9.5 45l80 299h94l-82 -304q-4 -14 -6 -30t-2 -30q0 -49 30 -76.5t83 -27.5q30 0 58 12t52 33.5t42.5 51.5t28.5 66l82 305h93l-144 -541h-94l22 83q-35 -39 -78.5 -67t-102.5 -28z" />
    <glyph glyph-name="v" unicode="v" horiz-adv-x="604" 
d="M96 541h98l54 -432l283 432h106l-374 -545h-84z" />
    <glyph glyph-name="w" unicode="w" horiz-adv-x="894" 
d="M104 541h95l23 -412l248 414h79l28 -414l245 412h96l-332 -545h-84l-28 409l-249 -409h-82z" />
    <glyph glyph-name="x" unicode="x" horiz-adv-x="599" 
d="M317 345l192 196h116l-271 -269l137 -272h-103l-99 209l-206 -209h-117l286 281l-133 260h103z" />
    <glyph glyph-name="y" unicode="y" horiz-adv-x="611" 
d="M97 541h97l66 -436l274 436h106l-365 -558q-28 -42 -54.5 -71t-53 -47.5t-55 -26.5t-59.5 -8q-35 0 -64.5 10t-55.5 28l51 69q17 -11 36.5 -19t42.5 -8q32 0 61 19t65 70z" />
    <glyph glyph-name="y" unicode="&#x1ef3;" horiz-adv-x="611" 
d="M97 541h97l66 -436l274 436h106l-365 -558q-28 -42 -54.5 -71t-53 -47.5t-55 -26.5t-59.5 -8q-35 0 -64.5 10t-55.5 28l51 69q17 -11 36.5 -19t42.5 -8q32 0 61 19t65 70z" />
    <glyph glyph-name="y" unicode="&#x177;" horiz-adv-x="611" 
d="M97 541h97l66 -436l274 436h106l-365 -558q-28 -42 -54.5 -71t-53 -47.5t-55 -26.5t-59.5 -8q-35 0 -64.5 10t-55.5 28l51 69q17 -11 36.5 -19t42.5 -8q32 0 61 19t65 70z" />
    <glyph glyph-name="z" unicode="z" horiz-adv-x="582" 
d="M0 62l443 401h-323l21 78h453l-17 -62l-442 -400h338l-21 -79h-469z" />
    <glyph glyph-name="braceleft" unicode="{" horiz-adv-x="513" 
d="M328 -147q-48 10 -81.5 26.5t-54.5 38.5t-30.5 48t-9.5 55q0 12 1 23t4 24t7.5 28.5t10.5 35.5q5 18 8.5 34.5t3.5 29.5q0 31 -19 48.5t-75 17.5h-29l19 72h30q38 0 63.5 8t45.5 27q13 13 22 31t15.5 38t10.5 39.5t7 35.5q8 43 22.5 83.5t47.5 74.5q34 34 86 51.5
t130 21.5l3 -66q-55 -4 -91.5 -17t-59.5 -37q-23 -23 -34 -54.5t-18 -68.5q-4 -21 -8.5 -43.5t-11.5 -44t-17 -41.5t-25 -35q-20 -20 -45.5 -30t-57.5 -15q79 -18 79 -89q0 -15 -4 -32.5t-9 -34.5q-8 -23 -14.5 -50.5t-6.5 -50.5q0 -44 24.5 -74t89.5 -50z" />
    <glyph glyph-name="bar" unicode="|" horiz-adv-x="334" 
d="M279 830h77l-259 -963h-76z" />
    <glyph glyph-name="braceright" unicode="}" horiz-adv-x="513" 
d="M200 744q48 -10 81.5 -26.5t54.5 -38.5t30.5 -48t9.5 -55q0 -23 -5 -47t-17 -64q-6 -18 -9.5 -34.5t-3.5 -29.5q0 -32 19 -49.5t75 -17.5h29l-19 -72h-29q-38 0 -64 -7.5t-46 -26.5q-13 -13 -22 -31t-15.5 -38t-10.5 -39.5t-7 -35.5q-8 -43 -22.5 -83.5t-47.5 -74.5
q-34 -34 -86 -51.5t-130 -21.5l-3 66q56 4 92 17t59 37q23 23 34 54.5t18 68.5q4 21 8.5 43t11.5 44t17.5 42t25.5 35q20 20 45 30t57 15q-79 18 -79 89q0 15 4 32.5t10 34.5q7 23 13.5 50.5t6.5 50.5q0 43 -24.5 73.5t-89.5 50.5z" />
    <glyph glyph-name="exclamdown" unicode="&#xa1;" horiz-adv-x="302" 
d="M147 52l-14 -52h-110l14 52l153 463h53zM296 608h-109l32 120h109z" />
    <glyph glyph-name="cent" unicode="&#xa2;" horiz-adv-x="602" 
d="M536 734l-39 -98q50 -16 82 -46t50 -65l-74 -48q-16 27 -38 48.5t-55 32.5l-152 -388q5 -1 10 -1h11q51 0 91 17.5t75 48.5l54 -63q-41 -38 -94 -62t-125 -24q-13 0 -25.5 1t-23.5 3l-38 -96h-74l45 115q-63 28 -100 84.5t-37 131.5q0 69 25.5 128t70.5 104t102.5 69.5
t123.5 24.5q7 0 14 -0.5t14 -0.5l33 84h74zM174 326q0 -48 20.5 -83.5t56.5 -54.5l149 380h-2q-45 0 -83.5 -17t-67.5 -47q-34 -34 -53.5 -80t-19.5 -98z" />
    <glyph glyph-name="sterling" unicode="&#xa3;" horiz-adv-x="667" 
d="M14 58l91 22l60 221h-86l23 83h85l32 121q28 103 83 160q35 35 79 53.5t101 18.5q78 0 127 -33.5t78 -85.5l-78 -51q-23 38 -53.5 59.5t-80.5 21.5q-32 0 -57.5 -11.5t-45.5 -31.5q-40 -40 -61 -116l-29 -105h283l-23 -83h-281l-58 -216h360l-23 -85h-542z" />
    <glyph glyph-name="yen" unicode="&#xa5;" horiz-adv-x="743" 
d="M280 116h-208l20 73h207l23 87h-208l20 73h178l-158 379h106l135 -342l321 342h119l-364 -379h175l-20 -73h-210l-23 -87h210l-19 -73h-210l-31 -116h-94z" />
    <glyph glyph-name="dieresis" unicode="&#xa8;" 
d="M232 725h104l-29 -106h-104zM423 725h104l-29 -106h-104z" />
    <glyph glyph-name="copyright" unicode="&#xa9;" horiz-adv-x="873" 
d="M433 168q-35 0 -65.5 11t-53 32t-35.5 51t-13 68q0 50 19 94.5t53 78.5q32 31 72 49.5t87 18.5q54 0 91.5 -23t58.5 -61l-53 -34q-17 26 -41 42.5t-60 16.5q-32 0 -59 -12t-49 -34q-25 -25 -39.5 -59.5t-14.5 -72.5q0 -54 30 -80.5t75 -26.5q35 0 60 13.5t48 33.5l41 -42
q-26 -26 -63.5 -45t-88.5 -19zM835 410q0 -85 -32 -163.5t-92 -138.5q-57 -57 -129 -88.5t-161 -31.5q-76 0 -138 25.5t-105.5 70t-67 104.5t-23.5 130q0 85 32 163.5t92 138.5q57 57 129 88.5t161 31.5q76 0 138 -25.5t105.5 -70t67 -104.5t23.5 -130zM125 319
q0 -61 20 -115t58 -94.5t93.5 -64t126.5 -23.5q79 0 143.5 28t115.5 79q56 56 85.5 127.5t29.5 153.5q0 61 -20 114.5t-58 94t-93.5 64t-126.5 23.5q-79 0 -143.5 -28t-115.5 -79q-56 -56 -85.5 -127.5t-29.5 -152.5z" />
    <glyph glyph-name="ordfeminine" unicode="&#xaa;" horiz-adv-x="416" 
d="M202 422q-38 0 -63 22t-25 58q0 52 38 81.5t96 29.5q26 0 51 -5t45 -11l2 7q2 5 2.5 12t0.5 12q0 24 -17 38t-55 14q-23 0 -43.5 -4.5t-38.5 -11.5l-10 49q23 8 48 13.5t56 5.5q58 0 88.5 -24.5t30.5 -68.5q0 -10 -2 -20.5t-5 -21.5l-45 -169h-58l12 46
q-21 -23 -47.5 -37.5t-60.5 -14.5zM224 466q35 0 66 24t41 58l3 12q-17 5 -36.5 8.5t-42.5 3.5q-36 0 -58.5 -17.5t-22.5 -45.5q0 -19 13.5 -31t36.5 -12zM76 350h263l-14 -52h-263z" />
    <glyph glyph-name="guillemotleft" unicode="&#xab;" horiz-adv-x="599" 
d="M52 263l2 8l238 227l54 -50l-189 -191l81 -183l-72 -34zM292 263l2 8l237 227l55 -50l-189 -191l81 -183l-72 -34z" />
    <glyph glyph-name="registered" unicode="&#xae;" horiz-adv-x="423" 
d="M307 738q37 0 67 -12.5t51 -34t32.5 -50.5t11.5 -62q0 -42 -15.5 -79t-44.5 -66q-28 -29 -63 -44.5t-77 -15.5q-37 0 -66.5 12.5t-50.5 34t-32.5 51t-11.5 62.5q0 42 15 79t44 66q57 59 140 59zM271 394q37 0 68 14t54 37q55 57 55 132q0 29 -9.5 55t-28 45.5t-45 30.5
t-60.5 11q-37 0 -67.5 -14t-53.5 -37q-55 -55 -55 -132q0 -29 9.5 -55t27.5 -45.5t44.5 -30.5t60.5 -11zM231 467h-39l49 186h70q22 0 35.5 -5t21.5 -13.5t11 -18t3 -18.5q0 -23 -15 -41t-44 -24l30 -66h-41l-27 63h-38zM293 561q17 0 26.5 3.5t14.5 8.5q8 8 8 21
q0 25 -35 25h-36l-16 -58h38z" />
    <glyph glyph-name="macron" unicode="&#xaf;" 
d="M213 710h340l-20 -73h-340z" />
    <glyph glyph-name="degree" unicode="&#xb0;" horiz-adv-x="424" 
d="M280 734q32 0 58.5 -11t45 -30t29 -45t10.5 -56q0 -37 -14.5 -70.5t-39.5 -58.5t-57.5 -39t-69.5 -14q-32 0 -58.5 10.5t-45.5 29.5t-29.5 45t-10.5 56q0 37 15 70.5t40 58.5t57.5 39.5t69.5 14.5zM247 467q23 0 43 9t34 24q38 36 38 88q0 41 -24.5 64.5t-62.5 23.5
q-23 0 -43 -9t-35 -24q-17 -17 -27 -40t-10 -48q0 -41 24.5 -64.5t62.5 -23.5z" />
    <glyph glyph-name="acute" unicode="&#xb4;" 
d="M393 775l91 -42l-151 -114h-85z" />
    <glyph glyph-name="periodcentered" unicode="&#xb7;" horiz-adv-x="287" 
d="M115 374h109l-33 -119h-108z" />
    <glyph glyph-name="cedilla" unicode="&#xb8;" 
d="M67 -126l130 136h73l-126 -174z" />
    <glyph glyph-name="ordmasculine" unicode="&#xba;" horiz-adv-x="421" 
d="M77 350h283l-13 -52h-283zM180 560q0 -40 23 -63.5t60 -23.5q45 0 75 32q17 17 27 40t10 49q0 39 -23 63t-60 24q-44 0 -75 -33q-17 -17 -27 -40t-10 -48zM435 596q0 -35 -14 -67t-39 -57q-23 -24 -54.5 -38t-67.5 -14q-32 0 -58 10.5t-44 28.5t-28 43t-10 55
q0 35 14 67.5t39 57.5q23 23 54.5 37t67.5 14q32 0 58 -10.5t44 -28.5t28 -43t10 -55z" />
    <glyph glyph-name="guillemotright" unicode="&#xbb;" horiz-adv-x="599" 
d="M545 274l-2 -8l-237 -227l-55 49l189 192l-81 182l72 35zM306 274l-3 -8l-237 -227l-55 49l189 192l-81 182l73 35z" />
    <glyph glyph-name="questiondown" unicode="&#xbf;" horiz-adv-x="570" 
d="M393 346l-7 -5q-54 -4 -98 -16t-75.5 -32t-48.5 -47.5t-17 -61.5q0 -51 36 -78.5t93 -27.5q54 0 100.5 23.5t81.5 56.5l53 -64q-45 -45 -107.5 -74t-138.5 -29q-51 0 -91.5 14.5t-68.5 39.5t-43 58.5t-15 72.5q0 49 20 88t56 68t86 48t110 28l39 107h62zM467 608h-109
l32 120h109z" />
    <glyph glyph-name="Agrave" unicode="&#xc0;" horiz-adv-x="802" 
d="M485 733h93l131 -733h-99l-31 188h-381l-133 -188h-105zM565 274l-60 348l-247 -348h307zM407 899l93 41l71 -139h-67z" />
    <glyph glyph-name="Aacute" unicode="&#xc1;" horiz-adv-x="802" 
d="M485 733h93l131 -733h-99l-31 188h-381l-133 -188h-105zM565 274l-60 348l-247 -348h307zM650 940l90 -41l-149 -98h-87z" />
    <glyph glyph-name="Acircumflex" unicode="&#xc2;" horiz-adv-x="802" 
d="M485 733h93l131 -733h-99l-31 188h-381l-133 -188h-105zM565 274l-60 348l-247 -348h307zM532 927h89l83 -128h-78l-61 62l-96 -62h-89z" />
    <glyph glyph-name="Atilde" unicode="&#xc3;" horiz-adv-x="802" 
d="M485 733h93l131 -733h-99l-31 188h-381l-133 -188h-105zM565 274l-60 348l-247 -348h307zM377 810q26 56 53 83.5t67 27.5q20 0 39 -6.5t37 -14.5q17 -8 32.5 -13.5t27.5 -5.5q21 0 34.5 11.5t30.5 37.5l56 -18q-26 -57 -53 -84t-67 -27q-20 0 -39.5 6.5t-37.5 14.5
q-17 8 -32 13.5t-28 5.5q-21 0 -34.5 -11.5t-29.5 -37.5z" />
    <glyph glyph-name="Adieresis" unicode="&#xc4;" horiz-adv-x="802" 
d="M485 733h93l131 -733h-99l-31 188h-381l-133 -188h-105zM565 274l-60 348l-247 -348h307zM426 902h106l-27 -101h-107zM626 902h106l-27 -101h-107z" />
    <glyph glyph-name="Aring" unicode="&#xc5;" horiz-adv-x="802" 
d="M458 696q-16 12 -25 30t-9 39q0 25 10 46.5t28 37.5t42 25.5t52 9.5q46 0 76 -27t30 -66q0 -36 -21 -65t-55 -43l123 -683h-99l-31 188h-381l-133 -188h-105zM565 274l-60 348l-247 -348h307zM534 715q32 0 55 21.5t23 50.5q0 23 -15.5 39t-44.5 16q-32 0 -55 -21.5
t-23 -50.5q0 -25 16.5 -40t43.5 -15z" />
    <glyph glyph-name="AE" unicode="&#xc6;" horiz-adv-x="1107" 
d="M576 728h592l-23 -87h-415l-62 -231h368l-24 -86h-367l-64 -237h420l-23 -87h-516l51 188h-286l-159 -188h-108zM535 274l99 369h-24l-313 -369h238z" />
    <glyph glyph-name="AE" unicode="&#x1fc;" horiz-adv-x="1107" 
d="M576 728h592l-23 -87h-415l-62 -231h368l-24 -86h-367l-64 -237h420l-23 -87h-516l51 188h-286l-159 -188h-108zM535 274l99 369h-24l-313 -369h238z" />
    <glyph glyph-name="Ccedilla" unicode="&#xc7;" horiz-adv-x="773" 
d="M214 -126l115 121q-52 10 -95.5 35.5t-75.5 63t-50 87.5t-18 110q0 91 36.5 174.5t99.5 146.5q59 59 136.5 93.5t165.5 34.5q103 0 171 -43.5t106 -112.5l-81 -52q-34 55 -81 87.5t-124 32.5q-63 0 -118.5 -25.5t-99.5 -68.5q-51 -51 -80.5 -119.5t-29.5 -143.5
q0 -50 16 -90.5t45.5 -69t69.5 -44t88 -15.5q70 0 119.5 25.5t96.5 68.5l63 -63q-26 -26 -55 -47.5t-63.5 -38t-75.5 -25.5t-89 -9h-6l-109 -151z" />
    <glyph glyph-name="Egrave" unicode="&#xc8;" horiz-adv-x="692" 
d="M360 889l93 41l71 -139h-67zM228 728h525l-23 -87h-429l-62 -231h382l-24 -86h-382l-63 -237h434l-23 -87h-531z" />
    <glyph glyph-name="Eacute" unicode="&#xc9;" horiz-adv-x="692" 
d="M603 930l90 -41l-149 -98h-87zM228 728h525l-23 -87h-429l-62 -231h382l-24 -86h-382l-63 -237h434l-23 -87h-531z" />
    <glyph glyph-name="Ecircumflex" unicode="&#xca;" horiz-adv-x="692" 
d="M228 728h525l-23 -87h-429l-62 -231h382l-24 -86h-382l-63 -237h434l-23 -87h-531zM485 919h89l83 -128h-78l-61 62l-96 -62h-89z" />
    <glyph glyph-name="Edieresis" unicode="&#xcb;" horiz-adv-x="692" 
d="M378 892h106l-27 -101h-107zM578 892h106l-27 -101h-107zM228 728h525l-23 -87h-429l-62 -231h382l-24 -86h-382l-63 -237h434l-23 -87h-531z" />
    <glyph glyph-name="Igrave" unicode="&#xcc;" horiz-adv-x="321" 
d="M235 728h97l-196 -728h-96zM158 889l93 41l71 -139h-67z" />
    <glyph glyph-name="Iacute" unicode="&#xcd;" horiz-adv-x="321" 
d="M235 728h97l-196 -728h-96zM400 930l90 -41l-149 -98h-87z" />
    <glyph glyph-name="Icircumflex" unicode="&#xce;" horiz-adv-x="321" 
d="M235 728h97l-196 -728h-96zM283 919h89l83 -128h-78l-61 62l-96 -62h-89z" />
    <glyph glyph-name="Idieresis" unicode="&#xcf;" horiz-adv-x="321" 
d="M235 728h97l-196 -728h-96zM175 892h106l-27 -101h-107zM375 892h106l-27 -101h-107z" />
    <glyph glyph-name="Eth" unicode="&#xd0;" horiz-adv-x="841" 
d="M147 329h-81l21 74h80l88 325h183q94 0 165.5 -25t118.5 -71q79 -79 79 -210q0 -84 -29.5 -155.5t-86.5 -128.5q-66 -66 -161 -102t-213 -36h-252zM244 329l-65 -241h143q89 0 163 28t128 82q42 42 65 98t23 121q0 49 -15 87t-43 66q-34 34 -87 52t-125 18h-103l-64 -237
h204l-20 -74h-204z" />
    <glyph glyph-name="Ntilde" unicode="&#xd1;" horiz-adv-x="827" 
d="M379 798q26 56 53 83.5t67 27.5q20 0 39 -6.5t37 -14.5q17 -8 32.5 -13.5t27.5 -5.5q21 0 34.5 11.5t30.5 37.5l56 -18q-26 -57 -53 -84t-67 -27q-20 0 -39.5 6.5t-37.5 14.5q-17 8 -32 13.5t-28 5.5q-21 0 -34.5 -11.5t-29.5 -37.5zM228 728h89l281 -568l153 568h95
l-196 -728h-78l-289 582l-156 -582h-95z" />
    <glyph glyph-name="Ograve" unicode="&#xd2;" horiz-adv-x="884" 
d="M429 899l93 41l71 -139h-67zM519 740q72 0 131 -24.5t101.5 -67t66 -100t23.5 -124.5q0 -88 -35 -169.5t-97 -143.5q-57 -57 -132 -90.5t-163 -33.5q-71 0 -130 24.5t-101.5 67t-66 100.5t-23.5 125q0 88 35 169t96 143q57 57 132 90.5t163 33.5zM422 75q63 0 117 25
t96 67q50 50 78 116.5t28 136.5q0 49 -16 91.5t-45.5 74t-72 49t-95.5 17.5q-64 0 -118 -25t-96 -67q-50 -50 -77.5 -116.5t-27.5 -135.5q0 -50 16 -92.5t45.5 -74t72 -49t95.5 -17.5z" />
    <glyph glyph-name="Oacute" unicode="&#xd3;" horiz-adv-x="884" 
d="M669 940l90 -41l-149 -98h-87zM519 740q72 0 131 -24.5t101.5 -67t66 -100t23.5 -124.5q0 -88 -35 -169.5t-97 -143.5q-57 -57 -132 -90.5t-163 -33.5q-71 0 -130 24.5t-101.5 67t-66 100.5t-23.5 125q0 88 35 169t96 143q57 57 132 90.5t163 33.5zM422 75q63 0 117 25
t96 67q50 50 78 116.5t28 136.5q0 49 -16 91.5t-45.5 74t-72 49t-95.5 17.5q-64 0 -118 -25t-96 -67q-50 -50 -77.5 -116.5t-27.5 -135.5q0 -50 16 -92.5t45.5 -74t72 -49t95.5 -17.5z" />
    <glyph glyph-name="Ocircumflex" unicode="&#xd4;" horiz-adv-x="884" 
d="M519 740q72 0 131 -24.5t101.5 -67t66 -100t23.5 -124.5q0 -88 -35 -169.5t-97 -143.5q-57 -57 -132 -90.5t-163 -33.5q-71 0 -130 24.5t-101.5 67t-66 100.5t-23.5 125q0 88 35 169t96 143q57 57 132 90.5t163 33.5zM422 75q63 0 117 25t96 67q50 50 78 116.5t28 136.5
q0 49 -16 91.5t-45.5 74t-72 49t-95.5 17.5q-64 0 -118 -25t-96 -67q-50 -50 -77.5 -116.5t-27.5 -135.5q0 -50 16 -92.5t45.5 -74t72 -49t95.5 -17.5zM555 929h89l83 -128h-78l-61 62l-96 -62h-89z" />
    <glyph glyph-name="Otilde" unicode="&#xd5;" horiz-adv-x="884" 
d="M399 810q26 56 53 83.5t67 27.5q20 0 39 -6.5t37 -14.5q17 -8 32.5 -13.5t27.5 -5.5q21 0 34.5 11.5t30.5 37.5l56 -18q-26 -57 -53 -84t-67 -27q-20 0 -39.5 6.5t-37.5 14.5q-17 8 -32 13.5t-28 5.5q-21 0 -34.5 -11.5t-29.5 -37.5zM519 740q72 0 131 -24.5t101.5 -67
t66 -100t23.5 -124.5q0 -88 -35 -169.5t-97 -143.5q-57 -57 -132 -90.5t-163 -33.5q-71 0 -130 24.5t-101.5 67t-66 100.5t-23.5 125q0 88 35 169t96 143q57 57 132 90.5t163 33.5zM422 75q63 0 117 25t96 67q50 50 78 116.5t28 136.5q0 49 -16 91.5t-45.5 74t-72 49
t-95.5 17.5q-64 0 -118 -25t-96 -67q-50 -50 -77.5 -116.5t-27.5 -135.5q0 -50 16 -92.5t45.5 -74t72 -49t95.5 -17.5z" />
    <glyph glyph-name="Odieresis" unicode="&#xd6;" horiz-adv-x="884" 
d="M447 902h106l-27 -101h-107zM647 902h106l-27 -101h-107zM519 740q72 0 131 -24.5t101.5 -67t66 -100t23.5 -124.5q0 -88 -35 -169.5t-97 -143.5q-57 -57 -132 -90.5t-163 -33.5q-71 0 -130 24.5t-101.5 67t-66 100.5t-23.5 125q0 88 35 169t96 143q57 57 132 90.5
t163 33.5zM422 75q63 0 117 25t96 67q50 50 78 116.5t28 136.5q0 49 -16 91.5t-45.5 74t-72 49t-95.5 17.5q-64 0 -118 -25t-96 -67q-50 -50 -77.5 -116.5t-27.5 -135.5q0 -50 16 -92.5t45.5 -74t72 -49t95.5 -17.5z" />
    <glyph glyph-name="Oslash" unicode="&#xd8;" horiz-adv-x="884" 
d="M519 740q72 0 130 -24t101 -66l95 83h104l-156 -137q23 -37 35.5 -80.5t12.5 -91.5q0 -88 -35 -169.5t-97 -143.5q-57 -57 -132 -90.5t-163 -33.5q-71 0 -129.5 24t-100.5 66l-95 -83h-105l157 137q-23 37 -35.5 80.5t-12.5 92.5q0 88 35 169t96 143q57 57 132 90.5
t163 33.5zM191 307q0 -66 25 -116l462 401q-30 29 -71.5 46t-94.5 17q-64 0 -118.5 -25.5t-96.5 -67.5q-51 -51 -78.5 -118t-27.5 -137zM421 72q65 0 119 25.5t96 67.5q51 51 79 118t28 137q0 63 -25 115l-462 -400q29 -30 70.5 -46.5t94.5 -16.5z" />
    <glyph glyph-name="Ugrave" unicode="&#xd9;" horiz-adv-x="800" 
d="M386 887l93 41l71 -139h-67zM365 -11q-65 0 -114.5 17t-83 48t-51 74t-17.5 96q0 57 15 114l104 390h97l-109 -411q-11 -35 -11 -81q0 -34 11 -63t33.5 -50.5t56 -33.5t78.5 -12q44 0 83 15.5t71 47.5q28 28 51 70.5t39 99.5l112 418h96l-116 -434q-19 -70 -47.5 -123.5
t-66.5 -91.5q-92 -90 -231 -90z" />
    <glyph glyph-name="Uacute" unicode="&#xda;" horiz-adv-x="800" 
d="M629 928l90 -41l-149 -98h-87zM365 -11q-65 0 -114.5 17t-83 48t-51 74t-17.5 96q0 57 15 114l104 390h97l-109 -411q-11 -35 -11 -81q0 -34 11 -63t33.5 -50.5t56 -33.5t78.5 -12q44 0 83 15.5t71 47.5q28 28 51 70.5t39 99.5l112 418h96l-116 -434
q-19 -70 -47.5 -123.5t-66.5 -91.5q-92 -90 -231 -90z" />
    <glyph glyph-name="Ucircumflex" unicode="&#xdb;" horiz-adv-x="800" 
d="M365 -11q-65 0 -114.5 17t-83 48t-51 74t-17.5 96q0 57 15 114l104 390h97l-109 -411q-11 -35 -11 -81q0 -34 11 -63t33.5 -50.5t56 -33.5t78.5 -12q44 0 83 15.5t71 47.5q28 28 51 70.5t39 99.5l112 418h96l-116 -434q-19 -70 -47.5 -123.5t-66.5 -91.5
q-92 -90 -231 -90zM511 917h89l83 -128h-78l-61 62l-96 -62h-89z" />
    <glyph glyph-name="Udieresis" unicode="&#xdc;" horiz-adv-x="800" 
d="M404 890h106l-27 -101h-107zM604 890h106l-27 -101h-107zM365 -11q-65 0 -114.5 17t-83 48t-51 74t-17.5 96q0 57 15 114l104 390h97l-109 -411q-11 -35 -11 -81q0 -34 11 -63t33.5 -50.5t56 -33.5t78.5 -12q44 0 83 15.5t71 47.5q28 28 51 70.5t39 99.5l112 418h96
l-116 -434q-19 -70 -47.5 -123.5t-66.5 -91.5q-92 -90 -231 -90z" />
    <glyph glyph-name="Yacute" unicode="&#xdd;" horiz-adv-x="697" 
d="M300 292l-175 436h107l134 -355l327 355h121l-422 -450l-74 -278h-97zM572 928l90 -41l-149 -98h-87z" />
    <glyph glyph-name="Thorn" unicode="&#xde;" horiz-adv-x="713" 
d="M228 728h96l-32 -122h132q71 0 123.5 -16.5t88.5 -52.5q52 -52 52 -137q0 -105 -69 -174q-47 -47 -120.5 -71.5t-167.5 -24.5h-166l-36 -130h-97zM336 215q145 0 209 66q44 44 44 112q0 51 -32 82q-42 44 -136 44h-153l-81 -304h149z" />
    <glyph glyph-name="germandbls" unicode="&#xdf;" horiz-adv-x="660" 
d="M258 74q62 0 106 12t71.5 31.5t40.5 45.5t13 55q0 98 -161 123l19 69q104 25 150 67.5t46 102.5q0 48 -32 76.5t-87 28.5q-64 0 -108.5 -46.5t-66.5 -129.5l-136 -509h-94l140 521q15 55 37.5 98.5t53.5 74.5q35 35 80 53.5t98 18.5q47 0 85 -13.5t65 -37.5t42 -56.5
t15 -71.5q0 -43 -15 -76.5t-41.5 -59.5t-62 -44.5t-77.5 -30.5q29 -9 55 -23t45.5 -33.5t31 -45t11.5 -58.5q0 -47 -22 -87.5t-65.5 -70t-108 -46t-149.5 -14.5z" />
    <glyph glyph-name="agrave" unicode="&#xe0;" horiz-adv-x="611" 
d="M191 -12q-34 0 -64.5 10t-54 29t-37 47t-13.5 63q0 41 13.5 73t38.5 57q32 32 80.5 49t107.5 17q53 0 100 -8.5t85 -19.5l3 12q3 11 5 24t2 24q0 48 -33.5 74.5t-104.5 26.5q-42 0 -79.5 -7.5t-72.5 -21.5l-15 78q41 16 85 25t98 9q104 0 159 -44.5t55 -123.5
q0 -18 -3.5 -37t-8.5 -39l-81 -305h-91l21 81q-37 -42 -85 -67.5t-110 -25.5zM224 60q32 0 63.5 11t58.5 31t47 48t29 61l10 34q-33 9 -74 15.5t-88 6.5q-79 0 -121 -42q-31 -31 -31 -77q0 -40 28.5 -64t77.5 -24zM253 733l94 42l60 -156h-65z" />
    <glyph glyph-name="aacute" unicode="&#xe1;" horiz-adv-x="611" 
d="M191 -12q-34 0 -64.5 10t-54 29t-37 47t-13.5 63q0 41 13.5 73t38.5 57q32 32 80.5 49t107.5 17q53 0 100 -8.5t85 -19.5l3 12q3 11 5 24t2 24q0 48 -33.5 74.5t-104.5 26.5q-42 0 -79.5 -7.5t-72.5 -21.5l-15 78q41 16 85 25t98 9q104 0 159 -44.5t55 -123.5
q0 -18 -3.5 -37t-8.5 -39l-81 -305h-91l21 81q-37 -42 -85 -67.5t-110 -25.5zM224 60q32 0 63.5 11t58.5 31t47 48t29 61l10 34q-33 9 -74 15.5t-88 6.5q-79 0 -121 -42q-31 -31 -31 -77q0 -40 28.5 -64t77.5 -24zM484 775l91 -42l-151 -114h-85z" />
    <glyph glyph-name="acircumflex" unicode="&#xe2;" horiz-adv-x="611" 
d="M191 -12q-34 0 -64.5 10t-54 29t-37 47t-13.5 63q0 41 13.5 73t38.5 57q32 32 80.5 49t107.5 17q53 0 100 -8.5t85 -19.5l3 12q3 11 5 24t2 24q0 48 -33.5 74.5t-104.5 26.5q-42 0 -79.5 -7.5t-72.5 -21.5l-15 78q41 16 85 25t98 9q104 0 159 -44.5t55 -123.5
q0 -18 -3.5 -37t-8.5 -39l-81 -305h-91l21 81q-37 -42 -85 -67.5t-110 -25.5zM224 60q32 0 63.5 11t58.5 31t47 48t29 61l10 34q-33 9 -74 15.5t-88 6.5q-79 0 -121 -42q-31 -31 -31 -77q0 -40 28.5 -64t77.5 -24zM374 760h85l75 -141h-73l-58 70l-100 -70h-81z" />
    <glyph glyph-name="atilde" unicode="&#xe3;" horiz-adv-x="611" 
d="M191 -12q-34 0 -64.5 10t-54 29t-37 47t-13.5 63q0 41 13.5 73t38.5 57q32 32 80.5 49t107.5 17q53 0 100 -8.5t85 -19.5l3 12q3 11 5 24t2 24q0 48 -33.5 74.5t-104.5 26.5q-42 0 -79.5 -7.5t-72.5 -21.5l-15 78q41 16 85 25t98 9q104 0 159 -44.5t55 -123.5
q0 -18 -3.5 -37t-8.5 -39l-81 -305h-91l21 81q-37 -42 -85 -67.5t-110 -25.5zM224 60q32 0 63.5 11t58.5 31t47 48t29 61l10 34q-33 9 -74 15.5t-88 6.5q-79 0 -121 -42q-31 -31 -31 -77q0 -40 28.5 -64t77.5 -24zM585 733q-26 -60 -53 -87t-68 -27q-20 0 -38.5 7t-37.5 15
q-16 8 -31 14t-28 6q-21 0 -34.5 -12t-29.5 -40l-55 17q26 60 53 87t68 27q20 0 38 -6.5t37 -15.5q17 -8 31.5 -13.5t27.5 -5.5q21 0 34.5 11.5t29.5 39.5z" />
    <glyph glyph-name="adieresis" unicode="&#xe4;" horiz-adv-x="611" 
d="M191 -12q-34 0 -64.5 10t-54 29t-37 47t-13.5 63q0 41 13.5 73t38.5 57q32 32 80.5 49t107.5 17q53 0 100 -8.5t85 -19.5l3 12q3 11 5 24t2 24q0 48 -33.5 74.5t-104.5 26.5q-42 0 -79.5 -7.5t-72.5 -21.5l-15 78q41 16 85 25t98 9q104 0 159 -44.5t55 -123.5
q0 -18 -3.5 -37t-8.5 -39l-81 -305h-91l21 81q-37 -42 -85 -67.5t-110 -25.5zM224 60q32 0 63.5 11t58.5 31t47 48t29 61l10 34q-33 9 -74 15.5t-88 6.5q-79 0 -121 -42q-31 -31 -31 -77q0 -40 28.5 -64t77.5 -24zM264 725h104l-29 -106h-104zM455 725h104l-29 -106h-104z
" />
    <glyph glyph-name="aring" unicode="&#xe5;" horiz-adv-x="611" 
d="M191 -12q-34 0 -64.5 10t-54 29t-37 47t-13.5 63q0 41 13.5 73t38.5 57q32 32 80.5 49t107.5 17q53 0 100 -8.5t85 -19.5l3 12q3 11 5 24t2 24q0 48 -33.5 74.5t-104.5 26.5q-42 0 -79.5 -7.5t-72.5 -21.5l-15 78q41 16 85 25t98 9q104 0 159 -44.5t55 -123.5
q0 -18 -3.5 -37t-8.5 -39l-81 -305h-91l21 81q-37 -42 -85 -67.5t-110 -25.5zM224 60q32 0 63.5 11t58.5 31t47 48t29 61l10 34q-33 9 -74 15.5t-88 6.5q-79 0 -121 -42q-31 -31 -31 -77q0 -40 28.5 -64t77.5 -24zM530 739q0 -24 -10 -46.5t-27.5 -39t-40.5 -26.5t-49 -10
q-49 0 -78.5 28.5t-29.5 71.5q0 24 10 46.5t27.5 39t40.5 26.5t49 10q49 0 78.5 -29t29.5 -71zM341 719q0 -27 17 -44t46 -17q33 0 56.5 23.5t23.5 54.5q0 27 -17 44.5t-46 17.5q-17 0 -31.5 -6.5t-25 -17.5t-17 -25t-6.5 -30z" />
    <glyph glyph-name="ae" unicode="&#xe6;" horiz-adv-x="1004" 
d="M675 -12q-77 0 -131 31.5t-81 88.5q-52 -54 -118 -87t-145 -33q-38 0 -70.5 10t-56.5 29t-37.5 46.5t-13.5 63.5q0 41 13.5 73t38.5 57q32 32 80.5 49t107.5 17q53 0 100 -8.5t85 -19.5l3 12q3 11 5 24t2 24q0 48 -33.5 74.5t-104.5 26.5q-42 0 -79.5 -7.5t-72.5 -21.5
l-15 78q41 16 85 25t98 9q78 0 127.5 -28.5t66.5 -80.5q41 50 97.5 81.5t123.5 31.5q51 0 90 -16.5t65.5 -45t40 -66.5t13.5 -81q0 -55 -20 -106h-415v-15q0 -71 41 -114t115 -43q49 0 85.5 16t73.5 45l46 -61q-38 -33 -90.5 -55.5t-119.5 -22.5zM230 60q57 0 111.5 27.5
t102.5 78.5q-6 36 -3 75q-35 12 -80 19t-91 7q-79 0 -121 -42q-31 -31 -31 -77q0 -40 29.5 -64t82.5 -24zM600 413q-44 -44 -64 -108h328q2 8 3.5 17.5t1.5 23.5q0 26 -7.5 49t-23 40.5t-39.5 28t-57 10.5q-42 0 -78 -16.5t-64 -44.5z" />
    <glyph glyph-name="ae" unicode="&#x1fd;" horiz-adv-x="1004" 
d="M675 -12q-77 0 -131 31.5t-81 88.5q-52 -54 -118 -87t-145 -33q-38 0 -70.5 10t-56.5 29t-37.5 46.5t-13.5 63.5q0 41 13.5 73t38.5 57q32 32 80.5 49t107.5 17q53 0 100 -8.5t85 -19.5l3 12q3 11 5 24t2 24q0 48 -33.5 74.5t-104.5 26.5q-42 0 -79.5 -7.5t-72.5 -21.5
l-15 78q41 16 85 25t98 9q78 0 127.5 -28.5t66.5 -80.5q41 50 97.5 81.5t123.5 31.5q51 0 90 -16.5t65.5 -45t40 -66.5t13.5 -81q0 -55 -20 -106h-415v-15q0 -71 41 -114t115 -43q49 0 85.5 16t73.5 45l46 -61q-38 -33 -90.5 -55.5t-119.5 -22.5zM230 60q57 0 111.5 27.5
t102.5 78.5q-6 36 -3 75q-35 12 -80 19t-91 7q-79 0 -121 -42q-31 -31 -31 -77q0 -40 29.5 -64t82.5 -24zM600 413q-44 -44 -64 -108h328q2 8 3.5 17.5t1.5 23.5q0 26 -7.5 49t-23 40.5t-39.5 28t-57 10.5q-42 0 -78 -16.5t-64 -44.5z" />
    <glyph glyph-name="ccedilla" unicode="&#xe7;" horiz-adv-x="594" 
d="M110 -126l117 123q-37 9 -68.5 29t-55 49t-36.5 67t-13 83q0 68 26 128t71 105q44 44 101 69.5t120 25.5q43 0 77 -10.5t61 -27.5t46.5 -40t32.5 -48l-75 -49q-11 19 -25 36t-31.5 29.5t-40.5 19.5t-52 7q-39 0 -75.5 -17t-65.5 -46q-34 -34 -54.5 -81t-20.5 -99
q0 -38 12.5 -67t33 -49t48 -30.5t57.5 -10.5q46 0 82 18t71 49l53 -61q-42 -39 -91.5 -63t-116.5 -25h-1l-110 -152z" />
    <glyph glyph-name="egrave" unicode="&#xe8;" horiz-adv-x="626" 
d="M145 238v-15q0 -69 40.5 -113t113.5 -44q48 0 86.5 16t75.5 45l46 -61q-41 -35 -92.5 -56.5t-123.5 -21.5q-54 0 -97.5 17t-75 47.5t-48.5 73t-17 94.5q0 66 27 129.5t75 111.5q42 42 96.5 67t118.5 25q51 0 90.5 -16.5t66.5 -45t40.5 -66.5t13.5 -81q0 -55 -20 -106
h-416zM222 413q-45 -45 -65 -108h329q2 8 3 17.5t1 23.5q0 26 -7.5 49t-22.5 40.5t-39 28t-57 10.5q-42 0 -78 -16.5t-64 -44.5zM280 733l94 42l60 -156h-65z" />
    <glyph glyph-name="eacute" unicode="&#xe9;" horiz-adv-x="626" 
d="M511 775l91 -42l-151 -114h-85zM145 238v-15q0 -69 40.5 -113t113.5 -44q48 0 86.5 16t75.5 45l46 -61q-41 -35 -92.5 -56.5t-123.5 -21.5q-54 0 -97.5 17t-75 47.5t-48.5 73t-17 94.5q0 66 27 129.5t75 111.5q42 42 96.5 67t118.5 25q51 0 90.5 -16.5t66.5 -45
t40.5 -66.5t13.5 -81q0 -55 -20 -106h-416zM222 413q-45 -45 -65 -108h329q2 8 3 17.5t1 23.5q0 26 -7.5 49t-22.5 40.5t-39 28t-57 10.5q-42 0 -78 -16.5t-64 -44.5z" />
    <glyph glyph-name="ecircumflex" unicode="&#xea;" horiz-adv-x="626" 
d="M401 760h85l75 -141h-73l-58 70l-100 -70h-81zM145 238v-15q0 -69 40.5 -113t113.5 -44q48 0 86.5 16t75.5 45l46 -61q-41 -35 -92.5 -56.5t-123.5 -21.5q-54 0 -97.5 17t-75 47.5t-48.5 73t-17 94.5q0 66 27 129.5t75 111.5q42 42 96.5 67t118.5 25q51 0 90.5 -16.5
t66.5 -45t40.5 -66.5t13.5 -81q0 -55 -20 -106h-416zM222 413q-45 -45 -65 -108h329q2 8 3 17.5t1 23.5q0 26 -7.5 49t-22.5 40.5t-39 28t-57 10.5q-42 0 -78 -16.5t-64 -44.5z" />
    <glyph glyph-name="edieresis" unicode="&#xeb;" horiz-adv-x="626" 
d="M292 725h104l-29 -106h-104zM483 725h104l-29 -106h-104zM145 238v-15q0 -69 40.5 -113t113.5 -44q48 0 86.5 16t75.5 45l46 -61q-41 -35 -92.5 -56.5t-123.5 -21.5q-54 0 -97.5 17t-75 47.5t-48.5 73t-17 94.5q0 66 27 129.5t75 111.5q42 42 96.5 67t118.5 25
q51 0 90.5 -16.5t66.5 -45t40.5 -66.5t13.5 -81q0 -55 -20 -106h-416zM222 413q-45 -45 -65 -108h329q2 8 3 17.5t1 23.5q0 26 -7.5 49t-22.5 40.5t-39 28t-57 10.5q-42 0 -78 -16.5t-64 -44.5z" />
    <glyph glyph-name="igrave" unicode="&#xec;" horiz-adv-x="292" 
d="M172 541h93l-145 -541h-94zM109 733l94 42l60 -156h-65z" />
    <glyph glyph-name="iacute" unicode="&#xed;" horiz-adv-x="292" 
d="M341 775l91 -42l-151 -114h-85zM172 541h93l-145 -541h-94z" />
    <glyph glyph-name="icircumflex" unicode="&#xee;" horiz-adv-x="292" 
d="M231 760h85l75 -141h-73l-58 70l-100 -70h-81zM172 541h93l-145 -541h-94z" />
    <glyph glyph-name="idieresis" unicode="&#xef;" horiz-adv-x="292" 
d="M122 725h104l-29 -106h-104zM313 725h104l-29 -106h-104zM172 541h93l-145 -541h-94z" />
    <glyph glyph-name="eth" unicode="&#xf0;" horiz-adv-x="670" 
d="M251 647l125 46q-27 33 -57 66h118l26 -34l118 43l23 -56l-104 -39q53 -79 86 -163t33 -171q0 -81 -26 -146t-76 -114q-42 -42 -98 -66.5t-122 -24.5q-55 0 -100 18t-76.5 50t-49 77t-17.5 99q0 66 24.5 123.5t66.5 99.5q40 40 91 62.5t108 22.5q62 0 104.5 -25.5
t74.5 -67.5q-14 40 -42 90.5t-66 104.5l-141 -52zM305 69q42 0 80 17t68 47q32 32 50.5 74.5t18.5 90.5q0 36 -12 66.5t-33.5 52.5t-52.5 34.5t-68 12.5q-42 0 -77 -16t-62 -43q-32 -32 -50.5 -76t-18.5 -93q0 -75 41 -121t116 -46z" />
    <glyph glyph-name="ntilde" unicode="&#xf1;" horiz-adv-x="650" 
d="M164 541h94l-22 -82q34 38 77.5 66t102.5 28q78 0 124 -45t46 -121q0 -20 -4.5 -42.5t-9.5 -44.5l-79 -300h-94l81 305q4 14 6 30t2 29q0 49 -29.5 76.5t-82.5 27.5q-30 0 -58.5 -12t-52.5 -33.5t-42.5 -51.5t-28.5 -66l-81 -305h-94zM615 733q-26 -60 -53 -87t-68 -27
q-20 0 -38.5 7t-37.5 15q-16 8 -31 14t-28 6q-21 0 -34.5 -12t-29.5 -40l-55 17q26 60 53 87t68 27q20 0 38 -6.5t37 -15.5q17 -8 31.5 -13.5t27.5 -5.5q21 0 34.5 11.5t29.5 39.5z" />
    <glyph glyph-name="ograve" unicode="&#xf2;" horiz-adv-x="676" 
d="M372 553q57 0 103 -18.5t78.5 -51t50 -77t17.5 -97.5q0 -64 -25.5 -122.5t-70.5 -103.5q-44 -44 -100.5 -69.5t-121.5 -25.5q-56 0 -102 18t-78.5 50.5t-50.5 77.5t-18 98q0 64 26 122.5t71 103.5q44 43 100.5 69t120.5 26zM309 70q42 0 78.5 17t65.5 46q35 35 54 80.5
t19 92.5q0 78 -44 121t-116 43q-41 0 -77.5 -17t-65.5 -46q-35 -34 -54.5 -80t-19.5 -92q0 -79 44 -122t116 -43zM295 733l94 42l60 -156h-65z" />
    <glyph glyph-name="oacute" unicode="&#xf3;" horiz-adv-x="676" 
d="M523 775l91 -42l-151 -114h-85zM372 553q57 0 103 -18.5t78.5 -51t50 -77t17.5 -97.5q0 -64 -25.5 -122.5t-70.5 -103.5q-44 -44 -100.5 -69.5t-121.5 -25.5q-56 0 -102 18t-78.5 50.5t-50.5 77.5t-18 98q0 64 26 122.5t71 103.5q44 43 100.5 69t120.5 26zM309 70
q42 0 78.5 17t65.5 46q35 35 54 80.5t19 92.5q0 78 -44 121t-116 43q-41 0 -77.5 -17t-65.5 -46q-35 -34 -54.5 -80t-19.5 -92q0 -79 44 -122t116 -43z" />
    <glyph glyph-name="ocircumflex" unicode="&#xf4;" horiz-adv-x="676" 
d="M416 760h85l75 -141h-73l-58 70l-100 -70h-81zM372 553q57 0 103 -18.5t78.5 -51t50 -77t17.5 -97.5q0 -64 -25.5 -122.5t-70.5 -103.5q-44 -44 -100.5 -69.5t-121.5 -25.5q-56 0 -102 18t-78.5 50.5t-50.5 77.5t-18 98q0 64 26 122.5t71 103.5q44 43 100.5 69t120.5 26z
M309 70q42 0 78.5 17t65.5 46q35 35 54 80.5t19 92.5q0 78 -44 121t-116 43q-41 0 -77.5 -17t-65.5 -46q-35 -34 -54.5 -80t-19.5 -92q0 -79 44 -122t116 -43z" />
    <glyph glyph-name="otilde" unicode="&#xf5;" horiz-adv-x="676" 
d="M372 553q57 0 103 -18.5t78.5 -51t50 -77t17.5 -97.5q0 -64 -25.5 -122.5t-70.5 -103.5q-44 -44 -100.5 -69.5t-121.5 -25.5q-56 0 -102 18t-78.5 50.5t-50.5 77.5t-18 98q0 64 26 122.5t71 103.5q44 43 100.5 69t120.5 26zM309 70q42 0 78.5 17t65.5 46q35 35 54 80.5
t19 92.5q0 78 -44 121t-116 43q-41 0 -77.5 -17t-65.5 -46q-35 -34 -54.5 -80t-19.5 -92q0 -79 44 -122t116 -43zM628 733q-26 -60 -53 -87t-68 -27q-20 0 -38.5 7t-37.5 15q-16 8 -31 14t-28 6q-21 0 -34.5 -12t-29.5 -40l-55 17q26 60 53 87t68 27q20 0 38 -6.5t37 -15.5
q17 -8 31.5 -13.5t27.5 -5.5q21 0 34.5 11.5t29.5 39.5z" />
    <glyph glyph-name="odieresis" unicode="&#xf6;" horiz-adv-x="676" 
d="M307 725h104l-29 -106h-104zM498 725h104l-29 -106h-104zM372 553q57 0 103 -18.5t78.5 -51t50 -77t17.5 -97.5q0 -64 -25.5 -122.5t-70.5 -103.5q-44 -44 -100.5 -69.5t-121.5 -25.5q-56 0 -102 18t-78.5 50.5t-50.5 77.5t-18 98q0 64 26 122.5t71 103.5q44 43 100.5 69
t120.5 26zM309 70q42 0 78.5 17t65.5 46q35 35 54 80.5t19 92.5q0 78 -44 121t-116 43q-41 0 -77.5 -17t-65.5 -46q-35 -34 -54.5 -80t-19.5 -92q0 -79 44 -122t116 -43z" />
    <glyph glyph-name="oslash" unicode="&#xf8;" horiz-adv-x="676" 
d="M372 553q55 0 99.5 -17t76.5 -48l68 59h97l-125 -109q16 -28 24.5 -60.5t8.5 -68.5q0 -64 -25.5 -122.5t-70.5 -103.5q-44 -44 -100.5 -69.5t-121.5 -25.5q-54 0 -99 16.5t-77 47.5l-68 -58h-97l125 107q-33 55 -33 131q0 64 26 122.5t71 103.5q44 43 100.5 69t120.5 26z
M368 472q-42 0 -80 -17.5t-67 -46.5q-35 -35 -54.5 -80t-19.5 -93q0 -44 12 -75l322 273q-42 39 -113 39zM528 306q0 40 -13 74l-320 -274q43 -38 113 -38q42 0 79.5 17.5t66.5 46.5q35 35 54.5 80.5t19.5 93.5z" />
    <glyph glyph-name="ugrave" unicode="&#xf9;" horiz-adv-x="648" 
d="M232 -12q-78 0 -124 45t-46 121q0 20 4.5 43t9.5 45l80 299h94l-82 -304q-4 -14 -6 -30t-2 -30q0 -49 30 -76.5t83 -27.5q30 0 58 12t52 33.5t42.5 51.5t28.5 66l82 305h93l-144 -541h-94l22 83q-35 -39 -78.5 -67t-102.5 -28zM279 733l94 42l60 -156h-65z" />
    <glyph glyph-name="uacute" unicode="&#xfa;" horiz-adv-x="648" 
d="M509 775l91 -42l-151 -114h-85zM232 -12q-78 0 -124 45t-46 121q0 20 4.5 43t9.5 45l80 299h94l-82 -304q-4 -14 -6 -30t-2 -30q0 -49 30 -76.5t83 -27.5q30 0 58 12t52 33.5t42.5 51.5t28.5 66l82 305h93l-144 -541h-94l22 83q-35 -39 -78.5 -67t-102.5 -28z" />
    <glyph glyph-name="ucircumflex" unicode="&#xfb;" horiz-adv-x="648" 
d="M399 760h85l75 -141h-73l-58 70l-100 -70h-81zM232 -12q-78 0 -124 45t-46 121q0 20 4.5 43t9.5 45l80 299h94l-82 -304q-4 -14 -6 -30t-2 -30q0 -49 30 -76.5t83 -27.5q30 0 58 12t52 33.5t42.5 51.5t28.5 66l82 305h93l-144 -541h-94l22 83q-35 -39 -78.5 -67
t-102.5 -28z" />
    <glyph glyph-name="udieresis" unicode="&#xfc;" horiz-adv-x="648" 
d="M290 725h104l-29 -106h-104zM481 725h104l-29 -106h-104zM232 -12q-78 0 -124 45t-46 121q0 20 4.5 43t9.5 45l80 299h94l-82 -304q-4 -14 -6 -30t-2 -30q0 -49 30 -76.5t83 -27.5q30 0 58 12t52 33.5t42.5 51.5t28.5 66l82 305h93l-144 -541h-94l22 83
q-35 -39 -78.5 -67t-102.5 -28z" />
    <glyph glyph-name="yacute" unicode="&#xfd;" horiz-adv-x="611" 
d="M97 541h97l66 -436l274 436h106l-365 -558q-28 -42 -54.5 -71t-53 -47.5t-55 -26.5t-59.5 -8q-35 0 -64.5 10t-55.5 28l51 69q17 -11 36.5 -19t42.5 -8q32 0 61 19t65 70zM477 775l91 -42l-151 -114h-85z" />
    <glyph glyph-name="thorn" unicode="&#xfe;" horiz-adv-x="698" 
d="M234 455q38 42 85.5 70t109.5 28q46 0 85 -16.5t67.5 -46.5t45 -72.5t16.5 -94.5q0 -75 -27.5 -138.5t-72.5 -108.5q-42 -42 -94 -65t-109 -23q-40 0 -71.5 10t-55.5 27.5t-41 40t-29 48.5l-75 -280h-93l248 925h94zM330 70q41 0 77 16t64 44q35 35 54 83t19 102
q0 72 -40 114t-105 42q-41 0 -79.5 -18t-70.5 -50q-35 -34 -55.5 -79t-20.5 -96q0 -33 11.5 -62t32 -50.5t49.5 -33.5t64 -12z" />
    <glyph glyph-name="ydieresis" unicode="&#xff;" horiz-adv-x="611" 
d="M97 541h97l66 -436l274 436h106l-365 -558q-28 -42 -54.5 -71t-53 -47.5t-55 -26.5t-59.5 -8q-35 0 -64.5 10t-55.5 28l51 69q17 -11 36.5 -19t42.5 -8q32 0 61 19t65 70zM258 725h104l-29 -106h-104zM449 725h104l-29 -106h-104z" />
    <glyph glyph-name="dotlessi" unicode="&#x131;" horiz-adv-x="292" 
d="M172 541h93l-145 -541h-94z" />
    <glyph glyph-name="Lslash" unicode="&#x141;" horiz-adv-x="689" 
d="M99 372l83 23l90 333h96l-81 -303l237 67l-24 -90l-237 -66l-66 -248h402l-24 -88h-499l82 306l-83 -23z" />
    <glyph glyph-name="lslash" unicode="&#x142;" horiz-adv-x="352" 
d="M85 392l84 23l93 344h94l-85 -315l86 24l-25 -90l-85 -24l-95 -354h-94l87 325l-84 -23z" />
    <glyph glyph-name="OE" unicode="&#x152;" horiz-adv-x="1166" 
d="M454 0q-188 0 -286 98q-37 37 -57.5 89t-20.5 119q0 84 29.5 155.5t86.5 128.5q66 66 161.5 102t213.5 36h646l-23 -87h-414l-62 -231h367l-24 -86h-367l-63 -237h419l-23 -87h-583zM248 158q34 -34 87.5 -52t125.5 -18h84l148 552h-124q-88 0 -162.5 -28t-128.5 -82
q-42 -42 -64.5 -98t-22.5 -121q0 -49 15 -87t42 -66z" />
    <glyph glyph-name="oe" unicode="&#x153;" horiz-adv-x="1092" 
d="M611 238v-15q0 -71 41 -114t115 -43q49 0 85.5 16t73.5 45l47 -61q-39 -33 -91.5 -55.5t-119.5 -22.5q-81 0 -137 37t-77 100q-20 -29 -45.5 -53.5t-56.5 -43.5t-67 -29.5t-77 -10.5q-56 0 -101.5 18t-78 50.5t-50.5 77.5t-18 98q0 64 26 122.5t71 103.5q44 43 100.5 69
t120.5 26q43 0 78.5 -11t63 -30.5t46.5 -46.5t29 -58q19 30 43.5 56.5t55 46.5t67 31.5t80.5 11.5q52 0 91.5 -16.5t66 -45t40 -66.5t13.5 -81q0 -55 -20 -106h-415zM309 70q42 0 78.5 17t65.5 46q35 35 54 80.5t19 92.5q0 78 -44 121t-116 43q-41 0 -77.5 -17t-65.5 -46
q-35 -34 -54.5 -80t-19.5 -92q0 -79 44 -122t116 -43zM687 413q-44 -44 -64 -108h328q2 8 3.5 17.5t1.5 23.5q0 26 -7.5 49t-23 40.5t-39.5 28t-57 10.5q-42 0 -78 -16.5t-64 -44.5z" />
    <glyph glyph-name="Scaron" unicode="&#x160;" horiz-adv-x="673" 
d="M314 -10q-102 0 -177.5 35.5t-123.5 101.5l74 59q45 -55 100 -83t133 -28q37 0 68 9.5t54 26t36 40t13 50.5q0 19 -7 35.5t-24 31t-45 29t-69 30.5q-48 19 -84.5 38.5t-61 42t-37.5 50.5t-13 64q0 39 14.5 74.5t42.5 63.5q38 37 92.5 57.5t122.5 20.5q87 0 152.5 -30.5
t107.5 -79.5l-69 -64q-40 44 -88.5 66.5t-110.5 22.5q-38 0 -68.5 -10t-51.5 -26.5t-32 -37.5t-11 -44q0 -21 8.5 -37.5t27.5 -31t48 -29t71 -30.5q45 -18 80 -36.5t58.5 -41.5t35.5 -51t12 -64q0 -43 -16 -79t-44 -65q-39 -38 -95.5 -59t-122.5 -21zM516 801h-89l-83 128
h78l61 -61l96 61h89z" />
    <glyph glyph-name="scaron" unicode="&#x161;" horiz-adv-x="527" 
d="M209 760h73l58 -70l100 70h81l-152 -141h-85zM231 -12q-63 0 -125.5 23.5t-109.5 71.5l58 60q44 -43 91 -61t94 -18q21 0 41 6t35 17t24 26t9 34q0 25 -20.5 44.5t-74.5 39.5q-36 14 -64.5 28.5t-48.5 32t-30.5 39.5t-10.5 51q0 36 14.5 67t41.5 54t65 36t86 13
q61 0 115 -22.5t88 -51.5l-54 -63q-35 28 -75 44.5t-82 16.5q-52 0 -79 -23t-27 -55q0 -12 5 -22.5t16.5 -20.5t31 -20.5t48.5 -22.5q35 -14 62.5 -29t46.5 -32.5t29 -39t10 -48.5q0 -39 -16.5 -71t-45 -55.5t-66.5 -36t-82 -12.5z" />
    <glyph glyph-name="Ydieresis" unicode="&#x178;" horiz-adv-x="697" 
d="M300 292l-175 436h107l134 -355l327 355h121l-422 -450l-74 -278h-97zM347 890h106l-27 -101h-107zM547 890h106l-27 -101h-107z" />
    <glyph glyph-name="Zcaron" unicode="&#x17d;" horiz-adv-x="710" 
d="M526 791h-89l-83 128h78l61 -61l96 61h89zM3 67l602 576h-432l23 85h569l-18 -67l-602 -576h451l-23 -85h-588z" />
    <glyph glyph-name="zcaron" unicode="&#x17e;" horiz-adv-x="582" 
d="M230 760h73l58 -70l100 70h81l-152 -141h-85zM0 62l443 401h-323l21 78h453l-17 -62l-442 -400h338l-21 -79h-469z" />
    <glyph glyph-name="circumflex" unicode="&#x2c6;" 
d="M355 760h85l75 -141h-73l-58 70l-100 -70h-81z" />
    <glyph glyph-name="caron" unicode="&#x2c7;" 
d="M239 760h73l58 -70l100 70h81l-152 -141h-85z" />
    <glyph glyph-name="breve" unicode="&#x2d8;" 
d="M364 617q-73 0 -107 38t-26 98h67q0 -29 17 -47t58 -18q42 0 68 18.5t43 46.5h71q-21 -61 -71.5 -98.5t-119.5 -37.5z" />
    <glyph glyph-name="dotaccent" unicode="&#x2d9;" 
d="M336 727h104l-30 -109h-104z" />
    <glyph glyph-name="ring" unicode="&#x2da;" 
d="M506 739q0 -24 -10 -46.5t-27.5 -39t-40.5 -26.5t-49 -10q-49 0 -78.5 28.5t-29.5 71.5q0 24 10 46.5t27.5 39t40.5 26.5t49 10q49 0 78.5 -29t29.5 -71zM317 719q0 -27 17 -44t46 -17q33 0 56.5 23.5t23.5 54.5q0 27 -17 44.5t-46 17.5q-17 0 -31.5 -6.5t-25 -17.5
t-17 -25t-6.5 -30z" />
    <glyph glyph-name="ogonek" unicode="&#x2db;" 
d="M237 -171q-6 -1 -11 -1h-11q-111 5 -111 69q0 32 27 61t68 57l59 -10q-37 -29 -55 -50t-18 -40q0 -17 15 -24.5t50 -10.5z" />
    <glyph glyph-name="tilde" unicode="&#x2dc;" 
d="M560 733q-26 -60 -53 -87t-68 -27q-20 0 -38.5 7t-37.5 15q-16 8 -31 14t-28 6q-21 0 -34.5 -12t-29.5 -40l-55 17q26 60 53 87t68 27q20 0 38 -6.5t37 -15.5q17 -8 31.5 -13.5t27.5 -5.5q21 0 34.5 11.5t29.5 39.5z" />
    <glyph glyph-name="hungarumlaut" unicode="&#x2dd;" 
d="M320 775l76 -41l-147 -115h-73zM497 775l76 -41l-148 -115h-73z" />
    <glyph glyph-name="endash" unicode="&#x2013;" horiz-adv-x="560" 
d="M94 360h420l-24 -91h-421z" />
    <glyph glyph-name="emdash" unicode="&#x2014;" horiz-adv-x="945" 
d="M94 360h805l-25 -91h-805z" />
    <glyph glyph-name="quoteleft" unicode="&#x2018;" horiz-adv-x="287" 
d="M163 582q10 37 24 63.5t34.5 44.5t47 28t60.5 15l9 -41q-49 -11 -73.5 -34t-30.5 -59h42l-32 -119h-109z" />
    <glyph glyph-name="quoteright" unicode="&#x2019;" horiz-adv-x="287" 
d="M113 516q48 11 72.5 34t31.5 58h-43l32 120h109l-28 -102q-10 -37 -24.5 -63.5t-34.5 -44.5t-46.5 -28t-60.5 -15z" />
    <glyph glyph-name="quotesinglbase" unicode="&#x201a;" horiz-adv-x="287" 
d="M-45 -92q49 10 73.5 33.5t30.5 58.5h-42l32 120h108l-27 -103q-10 -37 -24.5 -63t-34.5 -44t-46.5 -28.5t-60.5 -15.5z" />
    <glyph glyph-name="quotedblleft" unicode="&#x201c;" horiz-adv-x="505" 
d="M163 582q10 37 24 63t34.5 44t47 28.5t60.5 15.5l8 -42q-48 -10 -72.5 -33.5t-31.5 -58.5h43l-32 -120h-109zM381 582q10 37 24 63t34.5 44t47 28.5t60.5 15.5l8 -42q-48 -10 -72.5 -33.5t-31.5 -58.5h43l-32 -120h-109z" />
    <glyph glyph-name="quotedblright" unicode="&#x201d;" horiz-adv-x="505" 
d="M112 516q49 11 73.5 34t30.5 58h-42l32 120h109l-28 -102q-10 -37 -24.5 -63.5t-34.5 -44.5t-46.5 -28t-60.5 -15zM330 516q49 11 73.5 34t30.5 58h-42l32 120h108l-27 -102q-10 -37 -24.5 -63.5t-34.5 -44.5t-46.5 -28t-60.5 -15z" />
    <glyph glyph-name="quotedblbase" unicode="&#x201e;" horiz-adv-x="505" 
d="M-45 -92q49 10 73.5 33.5t30.5 58.5h-42l32 120h108l-27 -103q-10 -37 -24.5 -63t-34.5 -44t-46.5 -28.5t-60.5 -15.5zM174 -92q49 10 73 33.5t31 58.5h-43l32 120h109l-27 -103q-10 -37 -24.5 -63t-35 -44t-47 -28.5t-60.5 -15.5z" />
    <glyph glyph-name="bullet" unicode="&#x2022;" horiz-adv-x="511" 
d="M297 511q52 0 83 -31t31 -85q0 -36 -14 -69.5t-38 -57.5q-22 -22 -49 -34t-58 -12q-51 0 -82.5 31t-31.5 85q0 36 14.5 69.5t38.5 57.5q22 22 48.5 34t57.5 12z" />
    <glyph glyph-name="ellipsis" unicode="&#x2026;" horiz-adv-x="799" 
d="M48 118h107l-31 -118h-107zM306 118h106l-31 -118h-107zM563 118h107l-32 -118h-107z" />
    <glyph glyph-name="guilsinglleft" unicode="&#x2039;" horiz-adv-x="359" 
d="M52 263l2 8l238 227l54 -50l-189 -191l81 -183l-72 -34z" />
    <glyph glyph-name="guilsinglright" unicode="&#x203a;" horiz-adv-x="359" 
d="M306 275l-3 -9l-237 -226l-55 49l189 192l-81 182l73 35z" />
    <glyph glyph-name="Euro" unicode="&#x20ac;" horiz-adv-x="736" 
d="M104 492h75q18 42 41.5 78.5t55.5 67.5q48 48 109 75t134 27q49 0 88.5 -12.5t69.5 -34.5t51 -53t33 -67l-83 -38q-24 55 -62 86.5t-106 31.5q-45 0 -85.5 -18t-75.5 -52q-20 -21 -36 -43t-28 -48h269l-19 -72h-277q-17 -51 -21 -105h270l-19 -72h-252q8 -78 52 -123
t116 -45q59 0 101.5 23t82.5 67l65 -56q-47 -54 -107 -87.5t-144 -33.5q-56 0 -102.5 17.5t-81 50.5t-56 80t-25.5 107h-99l19 72h81q4 54 18 105h-71z" />
    <glyph glyph-name="trademark" unicode="&#x2122;" horiz-adv-x="732" 
d="M235 681h-102l14 47h253l-13 -47h-101l-77 -273h-50zM471 728h49l64 -168l153 168h57l-89 -320h-49l67 240l-154 -168h-6l-65 168l-67 -240h-50z" />
    <glyph glyph-name="hcoslug" horiz-adv-x="694" 
d="M273 18q2 22 -19 22q-9 0 -14.5 -5.5t-5.5 -15.5q1 -20 21 -20q15 0 18 14h-7q-2 -7 -9 -7q-10 0 -10 12h26zM254 35q7 0 7 -12h-14q0 12 7 12zM195 78q-8 0 -8 16q0 15 8 15t8 -15q0 -16 -8 -16zM210 4q-8 0 -8 16q0 15 8 15t8 -15q0 -16 -8 -16zM210 -1q9 0 15 6t6 15
t-6 14.5t-15 5.5t-15 -5.5t-6 -14.5q0 -10 6 -15.5t15 -5.5zM546 4q-8 0 -8 16q0 15 8 15t8 -15q0 -16 -8 -16zM546 -1q9 0 15 6t6 15t-6 14.5t-15 5.5t-15 -5.5t-6 -14.5q0 -10 6 -15.5t15 -5.5zM125 74h30v7h-10v16h4q5 0 6 -8h7v23h-7q-1 -8 -6 -8h-4v18h12q5 0 7 -2.5
t4 -10.5h8v20h-51v-7h7v-41h-7v-7zM195 73q9 0 15 6t6 15t-6 14.5t-15 5.5t-15 -5.5t-6 -14.5q0 -10 6 -15.5t15 -5.5zM644 -100h-594v800h594v-800zM498 -1q22 0 24 23h-8q-2 -16 -14 -16q-16 0 -16 22t14 22q10 0 15 -16h8v22h-8l-1 -6q-7 7 -16 7q-11 0 -19 -8t-8 -22
q0 -28 29 -28zM372 80q-8 0 -8 13t8 13q7 0 7 -13t-7 -13zM276 0h23v7h-5v25h14v-25h-5v-7h23v7h-6v52l-10 -2q-4 2 -9 2q-8 0 -13.5 -4.5t-5.5 -14.5v-1h-7v-7h7v-25h-6v-7zM368 0h26v7h-8v16q4 9 7 9v-1q0 -6 6 -6q7 0 7 7q0 8 -8 8t-12 -11v10h-18v-7h6v-25h-6v-7z
M352 73h6l4 8q5 -8 14 -8t12.5 7t3.5 14q0 20 -15 20q-10 0 -13 -9v27h-18v-7h6v-52zM400 75q-7 0 -7 -7q0 -9 11 -9q12 0 18 16l13 31h5v7h-17v-7h5l-8 -20l-9 20h6v7h-25v-7h5q2 -5 6 -13l6 -11l4 -9q-2 -8 -8 -8q2 2 1 6t-6 4zM247 428q0 13 7.5 21t19.5 8q13 0 21 -10.5
t8 -27.5q0 -13 -5 -25t-13 -25q-17 17 -27.5 29.5t-10.5 29.5zM302 74h7l1 4q2 -2 5 -3.5t8 -1.5q14 0 14 13q0 6 -4 8.5t-8.5 3.5t-8 2t-3.5 4q0 4 5 4t10 -7h7v13h-6l-2 -5q-3 5 -11 5q-7 0 -10.5 -3.5t-3.5 -8.5q0 -6 3.5 -8.5t8 -4t8.5 -2.5t4 -4q0 -4 -5 -4q-6 0 -12 9
h-7v-14zM261 219q-23 0 -37.5 15.5t-14.5 38.5q0 24 16 40q14 -13 33.5 -34.5t40.5 -47.5q-15 -12 -38 -12zM274 122v-9h-7v-7h7v-20q0 -13 12 -13q11 0 14 13l-5 2q-1 -7 -5 -7t-4 5v20h13v7h-13v11zM428 306q7 -11 18 -18t25 -7q21 0 35.5 15.5t14.5 38.5t-14.5 37.5
t-35.5 14.5q-35 0 -60 -38q-2 20 -15.5 29t-33.5 8q9 15 9 34q0 13 -6 26.5t-18 24t-30 17t-41 6.5q-25 0 -45 -7t-34.5 -19t-22 -27.5t-7.5 -31.5q0 -22 7.5 -37t23.5 -32q-82 -28 -82 -91q0 -20 8.5 -37t23.5 -29.5t34.5 -19.5t42.5 -7q63 0 104 45q25 -26 43.5 -35.5
t41.5 -9.5q32 0 55 25t25 69l-7 2q-8 -13 -17.5 -21t-25.5 -8q-15 0 -29 9.5t-33 31.5q11 15 23 25t23 17zM219 74h22v7h-4v15q0 10 7 10q6 0 6 -7v-18h-4v-7h22v7h-6v19q0 14 -12 14q-9 0 -14 -11v10h-17v-7h6v-25h-6v-7zM446 33v-7h6q-2 -5 -6 -9q-3 3 -5.5 6t-6.5 7
q11 5 11 12q0 5 -3.5 8.5t-10.5 3.5q-8 0 -12.5 -4t-4.5 -10t6 -12q-13 -4 -13 -15q0 -14 18 -14q9 0 15 6q5 -6 12 -6q10 0 13 12l-5 1q-1 -5 -4 -5t-6 5q3 3 5 6t4 8h5v7h-18zM429 6q-10 0 -10 10q0 5 4 9q4 -4 7 -7.5t7 -8.5q-4 -3 -8 -3zM294 42q0 7 1.5 9.5t4.5 2.5
q2 0 3 -1q-1 -2 -1 -4q0 -5 6 -5v-5h-14v3zM425 43q0 5 5 5q6 0 6 -6t-5 -9q-6 6 -6 10zM312 342q30 20 42 34q17 -17 15 -36t-16 -44q-10 11 -19.5 22.5t-21.5 23.5zM366 18q2 22 -19 22q-8 0 -14 -6t-6 -15q0 -20 21 -20q14 0 18 14h-7q-1 -7 -9 -7q-10 0 -10 12h26z
M347 35q7 0 7 -12h-14q0 12 7 12zM124 0h29v7h-8v18h22v-18h-8v-7h29v7h-8v41h8v7h-29v-7h8v-16h-22v16h8v7h-29v-7h8v-41h-8v-7zM576 13q-7 0 -7 -7t7 -7t7 7t-7 7z" />
    <glyph glyph-name="acute.cap" 
d="M464 930l90 -41l-149 -98h-87z" />
    <glyph glyph-name="hungarumlaut.cap" 
d="M366 930l88 -41l-149 -98h-85zM535 930l88 -41l-149 -98h-85z" />
    <glyph glyph-name="caron.alt.cap" 
d="M371 788h88v-3l-102 -176h-43z" />
    <glyph glyph-name="grave.cap" 
d="M318 889l93 41l71 -139h-67z" />
    <glyph glyph-name="circumflex.cap" 
d="M395 919h89l83 -128h-78l-61 62l-96 -62h-89z" />
    <glyph glyph-name="caron.cap" 
d="M450 791h-89l-83 128h78l61 -61l96 61h89z" />
    <glyph glyph-name="breve.cap" 
d="M405 789q-34 0 -60 8.5t-43.5 24t-24 39t-1.5 53.5h67q2 -26 19 -39.5t59 -13.5q38 0 63 14t41 39h75q-21 -60 -74 -92.5t-121 -32.5z" />
    <glyph glyph-name="tilde.cap" 
d="M228 800q26 56 53 83.5t67 27.5q20 0 39 -6.5t37 -14.5q17 -8 32.5 -13.5t27.5 -5.5q21 0 34.5 11.5t30.5 37.5l56 -18q-26 -57 -53 -84t-67 -27q-20 0 -39.5 6.5t-37.5 14.5q-17 8 -32 13.5t-28 5.5q-21 0 -34.5 -11.5t-29.5 -37.5z" />
    <glyph glyph-name="macron.cap" 
d="M255 885h352l-20 -75h-352z" />
    <glyph glyph-name="dieresis.cap" 
d="M280 892h106l-27 -101h-107zM480 892h106l-27 -101h-107z" />
    <glyph glyph-name="dotaccent.cap" 
d="M378 892h110l-28 -101h-110z" />
    <glyph glyph-name="ring.cap" 
d="M379 999q46 0 75.5 -26.5t29.5 -65.5q0 -24 -10 -45.5t-28 -37.5t-42 -25.5t-52 -9.5q-46 0 -76 26.5t-30 65.5q0 25 10 46.5t28 37.5t42 25t53 9zM356 831q33 0 56 21.5t23 50.5q0 23 -16 38.5t-45 15.5q-32 0 -55 -21t-23 -51q0 -25 16.5 -39.5t43.5 -14.5z" />
    <glyph glyph-name="commaaccent.cap" 
d="M62 -228q71 10 84 65h-47l25 92h102l-21 -79q-16 -58 -50.5 -83t-94.5 -29z" />
    <glyph glyph-name="cedilla.cap" 
d="M67 -126l130 136h73l-126 -174z" />
    <glyph glyph-name="ogonek.cap" 
d="M237 -171q-6 -1 -11 -1h-11q-111 5 -111 69q0 32 27 61t68 57l59 -10q-37 -29 -55 -50t-18 -40q0 -17 15 -24.5t50 -10.5z" />
    </font>
</defs>
</svg>
